<svg width="2382" height="184" viewBox="0 0 2382 184" fill="none" xmlns="http://www.w3.org/2000/svg">
<g clip-path="url(#clip0_609_329)">
<path d="M793.114 87.1114L810.369 0.704547H820.476L861.887 72.0519L858.19 71.5582L872.24 0.704547H884.565L867.31 87.1114H857.204L815.792 15.764L819.489 16.2578L805.439 87.1114H793.114ZM914.209 37.9829H958.579L956.484 48.4752H912.114L914.209 37.9829ZM907.554 76.3723H957.963L955.867 87.1114H893.134L910.389 0.704547H971.274L969.178 11.4437H920.495L907.554 76.3723ZM992.984 87.1114L981.398 0.704547H993.477L1004.2 80.3223H997.914L1041.18 0.704547H1052.52L1063.36 80.3223H1057.32L1100.21 0.704547H1112.41L1066.32 87.1114H1053.25L1042.9 13.4187L1046.48 13.2953L1006.05 87.1114H992.984ZM1135.56 88.0989C1131.21 88.0989 1126.94 87.6463 1122.75 86.7411C1118.64 85.7536 1114.86 84.4781 1111.41 82.9145C1108.04 81.351 1105.33 79.5817 1103.27 77.6067L1108.7 67.7316C1110.91 69.7066 1113.5 71.4348 1116.46 72.916C1119.5 74.3973 1122.71 75.5494 1126.07 76.3723C1129.53 77.1952 1133.06 77.6067 1136.67 77.6067C1141.27 77.6067 1145.34 77.0306 1148.88 75.8785C1152.41 74.7264 1155.12 73.0806 1157.01 70.941C1158.98 68.7191 1159.97 66.0446 1159.97 62.9175C1159.97 60.3664 1159.15 58.268 1157.5 56.6221C1155.86 54.9763 1153.72 53.6596 1151.09 52.6721C1148.55 51.6023 1145.67 50.6559 1142.47 49.833C1139.34 48.9278 1136.18 47.9403 1132.98 46.8705C1129.85 45.7184 1126.98 44.3195 1124.35 42.6736C1121.8 41.0278 1119.71 38.9293 1118.06 36.3782C1116.5 33.7449 1115.72 30.4532 1115.72 26.5032C1115.72 20.9896 1117.24 16.2578 1120.28 12.3078C1123.32 8.27543 1127.51 5.18947 1132.85 3.04988C1138.28 0.827984 1144.52 -0.282959 1151.59 -0.282959C1156.93 -0.282959 1162.02 0.334228 1166.87 1.56861C1171.72 2.803 1175.87 4.61343 1179.32 6.9999L1174.39 17.1219C1171.18 14.8177 1167.57 13.0895 1163.54 11.9374C1159.52 10.7853 1155.33 10.2093 1150.97 10.2093C1146.29 10.2093 1142.22 10.8265 1138.77 12.0609C1135.32 13.2953 1132.65 15.0645 1130.76 17.3687C1128.87 19.5906 1127.88 22.224 1127.8 25.2688C1127.8 27.9021 1128.58 30.0417 1130.14 31.6876C1131.7 33.3334 1133.8 34.6913 1136.43 35.7611C1139.06 36.8309 1141.93 37.8595 1145.05 38.847C1148.26 39.7522 1151.42 40.7397 1154.54 41.8095C1157.67 42.797 1160.54 44.1137 1163.17 45.7596C1165.88 47.3231 1168.02 49.3393 1169.58 51.808C1171.22 54.2768 1172.05 57.4039 1172.05 61.1894C1172.05 66.703 1170.48 71.517 1167.36 75.6317C1164.32 79.664 1160.05 82.7499 1154.54 84.8895C1149.12 87.0291 1142.79 88.0989 1135.56 88.0989Z" fill="#DDFF00"/>
<path d="M1995.51 87.3944L2012.77 0.987506H2022.88L2064.29 72.3349L2060.59 71.8412L2074.64 0.987506H2086.96L2069.71 87.3944H2059.6L2018.19 16.047L2021.89 16.5407L2007.84 87.3944H1995.51ZM2116.61 38.2659H2160.98L2158.88 48.7582H2114.51L2116.61 38.2659ZM2109.95 76.6552H2160.36L2158.26 87.3944H2095.53L2112.79 0.987506H2173.67L2171.57 11.7266H2122.89L2109.95 76.6552ZM2195.38 87.3944L2183.8 0.987506H2195.88L2206.6 80.6053H2200.31L2243.57 0.987506H2254.91L2265.76 80.6053H2259.72L2302.61 0.987506H2314.81L2268.72 87.3944H2255.65L2245.3 13.7017L2248.87 13.5782L2208.45 87.3944H2195.38ZM2337.96 88.3819C2333.61 88.3819 2329.33 87.9293 2325.14 87.0241C2321.03 86.0366 2317.26 84.761 2313.8 83.1975C2310.44 81.6339 2307.72 79.8646 2305.67 77.8896L2311.09 68.0146C2313.31 69.9896 2315.9 71.7177 2318.86 73.199C2321.9 74.6802 2325.1 75.8323 2328.47 76.6552C2331.92 77.4782 2335.45 77.8896 2339.07 77.8896C2343.67 77.8896 2347.74 77.3136 2351.27 76.1615C2354.8 75.0094 2357.52 73.3636 2359.41 71.224C2361.38 69.0021 2362.36 66.3276 2362.36 63.2005C2362.36 60.6494 2361.54 58.551 2359.9 56.9051C2358.26 55.2593 2356.12 53.9426 2353.49 52.9551C2350.94 51.8853 2348.07 50.9389 2344.86 50.116C2341.74 49.2108 2338.58 48.2233 2335.37 47.1535C2332.25 46.0014 2329.37 44.6024 2326.75 42.9566C2324.2 41.3107 2322.1 39.2123 2320.46 36.6612C2318.9 34.0278 2318.12 30.7362 2318.12 26.7861C2318.12 21.2726 2319.64 16.5407 2322.68 12.5907C2325.72 8.55839 2329.91 5.47243 2335.25 3.33283C2340.67 1.11094 2346.92 0 2353.98 0C2359.32 0 2364.42 0.617187 2369.27 1.85157C2374.11 3.08596 2378.26 4.89638 2381.71 7.28286L2376.78 17.4048C2373.58 15.1006 2369.96 13.3725 2365.94 12.2204C2361.91 11.0683 2357.72 10.4923 2353.37 10.4923C2348.68 10.4923 2344.62 11.1095 2341.17 12.3438C2337.71 13.5782 2335.04 15.3475 2333.15 17.6517C2331.26 19.8736 2330.28 22.5069 2330.2 25.5518C2330.2 28.1851 2330.98 30.3247 2332.54 31.9705C2334.1 33.6164 2336.19 34.9742 2338.82 36.044C2341.45 37.1138 2344.33 38.1425 2347.45 39.13C2350.66 40.0352 2353.82 41.0227 2356.94 42.0925C2360.06 43.08 2362.94 44.3967 2365.57 46.0425C2368.28 47.6061 2370.42 49.6222 2371.98 52.091C2373.62 54.5598 2374.44 57.6869 2374.44 61.4723C2374.44 66.9859 2372.88 71.8 2369.76 75.9146C2366.72 79.9469 2362.45 83.0329 2356.94 85.1725C2351.52 87.3121 2345.19 88.3819 2337.96 88.3819Z" fill="#DDFF00"/>
<path d="M1976 184.074L1993.25 97.6676H2003.36L2044.77 169.015L2041.08 168.521L2055.13 97.6676H2067.45L2050.2 184.074H2040.09L1998.68 112.727L2002.38 113.221L1988.32 184.074H1976ZM2097.09 134.946H2141.46L2139.37 145.438H2095L2097.09 134.946ZM2090.44 173.335H2140.85L2138.75 184.074H2076.02L2093.27 97.6676H2154.16L2152.06 108.407H2103.38L2090.44 173.335ZM2175.87 184.074L2164.28 97.6676H2176.36L2187.08 177.285H2180.8L2224.06 97.6676H2235.4L2246.24 177.285H2240.2L2283.09 97.6676H2295.3L2249.2 184.074H2236.14L2225.78 110.382L2229.36 110.258L2188.93 184.074H2175.87ZM2318.45 185.062C2314.09 185.062 2309.82 184.609 2305.63 183.704C2301.52 182.717 2297.74 181.441 2294.29 179.878C2290.92 178.314 2288.21 176.545 2286.16 174.57L2291.58 164.695C2293.8 166.67 2296.39 168.398 2299.34 169.879C2302.38 171.36 2305.59 172.512 2308.96 173.335C2312.41 174.158 2315.94 174.57 2319.56 174.57C2324.16 174.57 2328.22 173.994 2331.76 172.842C2335.29 171.689 2338 170.044 2339.89 167.904C2341.86 165.682 2342.85 163.008 2342.85 159.881C2342.85 157.329 2342.03 155.231 2340.39 153.585C2338.74 151.939 2336.61 150.623 2333.98 149.635C2331.43 148.565 2328.55 147.619 2325.35 146.796C2322.23 145.891 2319.06 144.903 2315.86 143.834C2312.74 142.681 2309.86 141.282 2307.23 139.637C2304.68 137.991 2302.59 135.892 2300.95 133.341C2299.38 130.708 2298.6 127.416 2298.6 123.466C2298.6 117.953 2300.12 113.221 2303.16 109.271C2306.2 105.238 2310.39 102.152 2315.74 100.013C2321.16 97.791 2327.4 96.6801 2334.47 96.6801C2339.81 96.6801 2344.9 97.2972 2349.75 98.5316C2354.6 99.766 2358.75 101.576 2362.2 103.963L2357.27 114.085C2354.07 111.781 2350.45 110.053 2346.42 108.9C2342.4 107.748 2338.21 107.172 2333.85 107.172C2329.17 107.172 2325.1 107.79 2321.65 109.024C2318.2 110.258 2315.53 112.028 2313.64 114.332C2311.75 116.554 2310.76 119.187 2310.68 122.232C2310.68 124.865 2311.46 127.005 2313.02 128.651C2314.58 130.296 2316.68 131.654 2319.31 132.724C2321.94 133.794 2324.81 134.823 2327.94 135.81C2331.14 136.715 2334.3 137.703 2337.43 138.773C2340.55 139.76 2343.43 141.077 2346.05 142.723C2348.77 144.286 2350.9 146.302 2352.46 148.771C2354.11 151.24 2354.93 154.367 2354.93 158.152C2354.93 163.666 2353.37 168.48 2350.24 172.595C2347.2 176.627 2342.93 179.713 2337.43 181.853C2332 183.992 2325.68 185.062 2318.45 185.062Z" fill="#DDFF00"/>
<path d="M773.6 183.791L790.854 97.3846H800.961L842.372 168.732L838.675 168.238L852.725 97.3846H865.05L847.795 183.791H837.689L796.277 112.444L799.975 112.938L785.924 183.791H773.6ZM894.695 134.663H939.064L936.969 145.155H892.599L894.695 134.663ZM888.039 173.052H938.448L936.353 183.791H873.619L890.874 97.3846H951.759L949.664 108.124H900.98L888.039 173.052ZM973.469 183.791L961.884 97.3846H973.962L984.685 177.002H978.399L1021.66 97.3846H1033L1043.85 177.002H1037.81L1080.7 97.3846H1092.9L1046.8 183.791H1033.74L1023.39 110.099L1026.96 109.975L986.533 183.791H973.469ZM1116.05 184.779C1111.69 184.779 1107.42 184.326 1103.23 183.421C1099.12 182.434 1095.34 181.158 1091.89 179.595C1088.52 178.031 1085.81 176.262 1083.76 174.287L1089.18 164.412C1091.4 166.387 1093.99 168.115 1096.95 169.596C1099.99 171.077 1103.19 172.229 1106.56 173.052C1110.01 173.875 1113.54 174.287 1117.16 174.287C1121.76 174.287 1125.83 173.711 1129.36 172.559C1132.89 171.406 1135.61 169.761 1137.49 167.621C1139.47 165.399 1140.45 162.725 1140.45 159.598C1140.45 157.046 1139.63 154.948 1137.99 153.302C1136.34 151.656 1134.21 150.34 1131.58 149.352C1129.03 148.282 1126.16 147.336 1122.95 146.513C1119.83 145.608 1116.67 144.62 1113.46 143.551C1110.34 142.398 1107.46 141 1104.83 139.354C1102.29 137.708 1100.19 135.609 1098.55 133.058C1096.99 130.425 1096.21 127.133 1096.21 123.183C1096.21 117.67 1097.73 112.938 1100.77 108.988C1103.81 104.955 1108 101.87 1113.34 99.7299C1118.76 97.508 1125.01 96.3971 1132.07 96.3971C1137.41 96.3971 1142.51 97.0143 1147.35 98.2487C1152.2 99.4831 1156.35 101.293 1159.8 103.68L1154.87 113.802C1151.67 111.498 1148.05 109.77 1144.03 108.617C1140 107.465 1135.81 106.889 1131.46 106.889C1126.77 106.889 1122.7 107.507 1119.25 108.741C1115.8 109.975 1113.13 111.745 1111.24 114.049C1109.35 116.271 1108.37 118.904 1108.28 121.949C1108.28 124.582 1109.07 126.722 1110.63 128.368C1112.19 130.013 1114.28 131.371 1116.91 132.441C1119.54 133.511 1122.42 134.54 1125.54 135.527C1128.74 136.432 1131.91 137.42 1135.03 138.49C1138.15 139.477 1141.03 140.794 1143.66 142.44C1146.37 144.003 1148.51 146.019 1150.07 148.488C1151.71 150.957 1152.53 154.084 1152.53 157.869C1152.53 163.383 1150.97 168.197 1147.85 172.312C1144.81 176.344 1140.53 179.43 1135.03 181.57C1129.61 183.709 1123.28 184.779 1116.05 184.779Z" fill="#DDFF00"/>
<path d="M1196.11 182.187L1195.49 7.93394L1222.1 7.83211L1331.67 141.592L1318.51 141.641L1318.03 7.46693L1350.1 7.34452L1350.71 181.597L1324.11 181.699L1214.53 47.9393L1227.7 47.8899L1228.18 182.064L1196.11 182.187ZM1397.32 181.42L1396.72 7.1676L1523.73 6.68413L1523.82 33.8179L1429.12 34.178L1429.54 154.163L1527.72 153.79L1527.81 180.924L1397.32 181.42ZM1426.89 106.129L1426.79 79.4932L1513.29 79.1641L1513.38 105.8L1426.89 106.129ZM1602.42 180.64L1544.14 6.60595L1577.7 6.4784L1629.7 163.857L1613.05 163.92L1665.93 6.14203L1695.76 6.02887L1748.26 163.406L1732.11 163.466L1784.24 5.69148L1815.07 5.57422L1758.01 180.047L1723.72 180.178L1675.74 38.2175L1684.69 38.1836L1636.97 180.508L1602.42 180.64ZM1895.95 182.011C1882.36 182.062 1869.35 180.204 1856.9 176.435C1844.46 172.499 1834.58 167.475 1827.27 161.362L1838.37 136.177C1845.34 141.627 1853.98 146.158 1864.26 149.77C1874.55 153.381 1885.08 155.167 1895.85 155.126C1904.97 155.092 1912.33 154.068 1917.96 152.054C1923.59 150.042 1927.72 147.371 1930.35 144.041C1932.99 140.547 1934.31 136.641 1934.3 132.327C1934.28 127.016 1932.36 122.791 1928.54 119.653C1924.71 116.349 1919.73 113.795 1913.59 111.993C1907.63 110.024 1900.91 108.225 1893.44 106.593C1886.15 104.962 1878.76 103.081 1871.3 100.952C1864.01 98.656 1857.28 95.7778 1851.14 92.3154C1845.16 88.6873 1840.25 83.8938 1836.42 77.9338C1832.59 71.9738 1830.66 64.3473 1830.63 55.0535C1830.6 45.594 1833.05 36.9553 1837.99 29.1365C1843.09 21.1511 1850.78 14.8146 1861.04 10.1291C1871.46 5.27693 1884.63 2.82051 1900.53 2.75982C1910.97 2.7197 1921.34 4.0086 1931.62 6.62447C1941.9 9.24033 1950.86 13.0237 1958.5 17.9726L1948.4 43.154C1940.59 38.5374 1932.54 35.1655 1924.25 33.0392C1915.96 30.7474 1908.01 29.6159 1900.37 29.6457C1891.43 29.6797 1884.15 30.7855 1878.52 32.9652C1873.05 35.1429 1869.01 37.9799 1866.37 41.4752C1863.89 44.9696 1862.67 48.9566 1862.68 53.4374C1862.7 58.7484 1864.54 63.0564 1868.2 66.3615C1872.02 69.4999 1876.92 71.9707 1882.88 73.7739C1889.03 75.5761 1895.82 77.3752 1903.29 79.1723C1910.75 80.8038 1918.13 82.6841 1925.42 84.8134C1932.89 86.9427 1939.61 89.7386 1945.59 93.2011C1951.74 96.6625 1956.64 101.374 1960.3 107.334C1964.14 113.294 1966.07 120.838 1966.1 129.965C1966.14 139.259 1963.59 147.898 1958.49 155.883C1953.55 163.702 1945.86 170.038 1935.44 174.891C1925.01 179.577 1911.85 181.95 1895.95 182.011Z" fill="#DDFF00"/>
<path d="M0.219885 183.573L-0.416992 9.32058L26.1779 9.22388L135.782 142.998L122.609 143.047L122.118 8.87208L154.181 8.75379L154.818 183.007L128.223 183.104L18.6193 49.33L31.7924 49.2817L32.2828 183.456L0.219885 183.573ZM201.439 182.836L200.802 8.58303L327.811 8.11808L327.911 35.2509L233.212 35.5986L233.651 155.584L331.829 155.224L331.927 182.358L201.439 182.836ZM230.99 107.549L230.892 80.9128L317.388 80.596L317.486 107.232L230.99 107.549ZM406.531 182.084L348.231 8.04299L381.785 7.91955L433.811 165.306L417.158 165.366L470.021 7.59655L499.847 7.48648L552.369 164.87L536.213 164.93L588.33 7.16246L619.151 7.04931L562.123 181.514L527.824 181.64L479.831 39.673L488.779 39.6401L441.08 181.957L406.531 182.084ZM700.055 183.497C686.467 183.547 673.453 181.686 661.012 177.915C648.569 173.977 638.692 168.952 631.379 162.839L642.471 137.655C649.451 143.106 658.084 147.638 668.371 151.252C678.657 154.865 689.186 156.653 699.957 156.612C709.07 156.579 716.44 155.556 722.066 153.544C727.693 151.532 731.826 148.862 734.465 145.533C737.104 142.038 738.414 138.134 738.399 133.818C738.379 128.508 736.459 124.283 732.636 121.143C728.813 117.838 723.832 115.284 717.695 113.482C711.723 111.512 705.005 109.711 697.542 108.078C690.246 106.446 682.865 104.565 675.4 102.434C668.101 100.138 661.38 97.2581 655.236 93.7956C649.257 90.1666 644.352 85.372 640.519 79.4109C636.686 73.4509 634.752 65.8245 634.718 56.5306C634.684 47.0711 637.138 38.4325 642.08 30.6147C647.188 22.6293 654.87 16.2948 665.126 11.6104C675.548 6.75923 688.712 4.30487 704.619 4.24726C715.059 4.20817 725.42 5.4981 735.703 8.11602C745.986 10.7329 754.947 14.5173 762.588 19.4682L752.489 44.6476C744.685 40.03 736.635 36.657 728.343 34.5298C720.049 32.2369 712.091 31.1044 704.47 31.1321C695.522 31.1651 688.235 32.2709 682.608 34.4485C677.148 36.6262 673.099 39.4622 670.46 42.9575C667.988 46.4509 666.76 50.4389 666.776 54.9198C666.795 60.2297 668.634 64.5387 672.291 67.8437C676.114 70.9832 681.011 73.454 686.983 75.2583C693.12 77.0615 699.921 78.8617 707.384 80.6597C714.847 82.2922 722.228 84.1736 729.526 86.304C736.991 88.4343 743.712 91.2312 749.689 94.6937C755.833 98.1571 760.739 102.868 764.405 108.829C768.238 114.79 770.171 122.334 770.205 131.462C770.239 140.755 767.702 149.394 762.595 157.379C757.652 165.197 749.97 171.531 739.549 176.382C729.126 181.068 715.962 183.439 700.055 183.497Z" fill="#DDFF00"/>
</g>
<defs>
<clipPath id="clip0_609_329">
<rect width="2382" height="184" fill="white"/>
</clipPath>
</defs>
</svg>
