<svg width="283" height="475" viewBox="0 0 283 475" fill="none" xmlns="http://www.w3.org/2000/svg">
<path d="M116.672 329.032C97.036 329.032 79.6087 324.578 64.3905 315.671C49.1723 306.763 37.1451 294.547 28.3087 279.023C19.4723 263.244 15.0542 245.429 15.0542 225.578C15.0542 205.473 19.4723 187.658 28.3087 172.134C37.1451 156.61 49.1723 144.522 64.3905 135.869C79.6087 126.961 97.036 122.509 116.672 122.509C136.063 122.509 153.368 126.961 168.586 135.869C184.05 144.522 196.077 156.61 204.668 172.134C213.504 187.404 217.922 205.218 217.922 225.578C217.922 245.683 213.504 263.499 204.668 279.023C196.077 294.547 184.05 306.763 168.586 315.671C153.368 324.578 136.063 329.032 116.672 329.032ZM116.672 296.965C129.191 296.965 140.359 294.038 150.177 288.185C160.241 282.332 168.095 274.061 173.741 263.372C179.386 252.428 182.209 239.83 182.209 225.578C182.209 211.072 179.386 198.602 173.741 188.167C168.095 177.478 160.241 169.207 150.177 163.354C140.359 157.501 129.191 154.574 116.672 154.574C104.154 154.574 94.0576 156.141 84.2394 161.995C74.4212 167.848 65.4951 177.478 59.6042 188.167C53.7132 198.602 50.7678 211.072 50.7678 225.578C50.7678 239.83 53.7132 252.428 59.6042 263.372C65.4951 274.061 73.3496 282.332 83.1678 288.185C92.986 294.038 104.154 296.965 116.672 296.965Z" fill="#DDFF00"/>
<path d="M78.1973 418.359L46.3496 414.16C50.7678 414.288 54.3882 412.697 57.211 409.388C60.1564 406.08 62.4882 401.435 64.2064 395.455C65.9246 389.347 67.1519 382.221 67.8883 374.077C68.7473 365.933 69.361 357.09 69.7292 347.546L71.2019 305.745H170.243V425.613H140.788V330.94H96.6064L96.0542 350.409C95.686 358.68 95.1337 366.506 94.3973 373.886C93.7837 381.267 92.8019 388.011 91.4519 394.119C90.1019 400.099 88.3223 405.189 86.1133 409.388C84.0269 413.588 81.3882 416.578 78.1973 418.359ZM42.1155 467.032L42.2996 414.16H188.284V467.032H160.67V439.355H69.7292V467.032H42.1155Z" fill="#DDFF00"/>
<path d="M204.748 14.2154L161.613 147.79L159.262 142.445L208.257 190.625L197.672 181.082L155.315 147.399L92.4728 132.845L101.485 134.932L153.501 140.445L148.52 143.245L191.655 9.67029L204.748 14.2154Z" fill="#DDFF00"/>
<path d="M33.4743 13.8742L84.2394 144.534L79.1058 142.048L131.86 138.151L139.586 130.677L81.2347 147.79L28.3087 181.082V195.397L73.4708 144.402L71.4327 149.883L20.6675 19.2233L33.4743 13.8742Z" fill="#DDFF00"/>
<path d="M168.586 305.745L213.602 378.984L278 323.342M62.3658 307.057L8 453.518M116.672 329.032C97.036 329.032 79.6087 324.578 64.3905 315.671C49.1723 306.763 37.1451 294.547 28.3087 279.023C19.4723 263.244 15.0542 245.429 15.0542 225.578C15.0542 205.473 19.4723 187.658 28.3087 172.134C37.1451 156.61 49.1723 144.522 64.3905 135.869C79.6087 126.961 97.036 122.509 116.672 122.509C136.063 122.509 153.368 126.961 168.586 135.869C184.05 144.522 196.077 156.61 204.668 172.134C213.504 187.404 217.922 205.218 217.922 225.578C217.922 245.683 213.504 263.499 204.668 279.023C196.077 294.547 184.05 306.763 168.586 315.671C153.368 324.578 136.063 329.032 116.672 329.032ZM116.672 296.965C129.191 296.965 140.359 294.038 150.177 288.185C160.241 282.332 168.095 274.061 173.741 263.372C179.386 252.428 182.209 239.83 182.209 225.578C182.209 211.072 179.386 198.602 173.741 188.167C168.095 177.478 160.241 169.207 150.177 163.354C140.359 157.501 129.191 154.574 116.672 154.574C104.154 154.574 94.0576 156.141 84.2394 161.995C74.4212 167.848 65.4951 177.478 59.6042 188.167C53.7132 198.602 50.7678 211.072 50.7678 225.578C50.7678 239.83 53.7132 252.428 59.6042 263.372C65.4951 274.061 73.3496 282.332 83.1678 288.185C92.986 294.038 104.154 296.965 116.672 296.965ZM78.1973 418.359L46.3496 414.16C50.7678 414.288 54.3882 412.697 57.211 409.388C60.1564 406.08 62.4882 401.435 64.2064 395.455C65.9246 389.347 67.1519 382.221 67.8883 374.077C68.7473 365.933 69.361 357.09 69.7292 347.546L71.2019 305.745H170.243V425.613H140.788V330.94H96.6064L96.0542 350.409C95.686 358.68 95.1337 366.506 94.3973 373.886C93.7837 381.267 92.8019 388.011 91.4519 394.119C90.1019 400.099 88.3223 405.189 86.1133 409.388C84.0269 413.588 81.3882 416.578 78.1973 418.359ZM42.1155 467.032L42.2996 414.16H188.284V467.032H160.67V439.355H69.7292V467.032H42.1155ZM204.748 14.2154L161.613 147.79L159.262 142.445L208.257 190.625L197.672 181.082L155.315 147.399L92.4728 132.845L101.485 134.932L153.501 140.445L148.52 143.245L191.655 9.67029L204.748 14.2154ZM33.4743 13.8743L84.2394 144.534L79.1058 142.048L131.86 138.151L139.586 130.677L81.2347 147.79L28.3087 181.082V195.397L73.4708 144.402L71.4327 149.883L20.6675 19.2233L33.4743 13.8743Z" stroke="#DDFF00" stroke-width="15"/>
<path d="M165.082 267.424C154.651 267.424 145.753 263.766 138.389 256.449C131.026 248.814 127.344 239.271 127.344 227.818C127.344 215.73 131.026 206.186 138.389 199.188C145.753 191.871 154.651 188.213 165.082 188.213C175.514 188.213 184.412 191.871 191.776 199.188C199.139 206.186 202.821 215.73 202.821 227.818C202.821 239.271 199.139 248.814 191.776 256.449C184.412 263.766 175.514 267.424 165.082 267.424Z" fill="#030404"/>
<path d="M65.826 267.424C55.3942 267.424 46.4965 263.766 39.1328 256.449C31.7692 248.814 28.0874 239.271 28.0874 227.818C28.0874 215.73 31.7692 206.186 39.1328 199.188C46.4965 191.871 55.3942 188.213 65.826 188.213C76.2578 188.213 85.1555 191.871 92.5192 199.188C99.8828 206.186 103.565 215.73 103.565 227.818C103.565 239.271 99.8828 248.814 92.5192 256.449C85.1555 263.766 76.2578 267.424 65.826 267.424Z" fill="#030404"/>
</svg>
