<svg width="361" height="484" viewBox="0 0 361 484" fill="none" xmlns="http://www.w3.org/2000/svg">
<path d="M202.922 412L237.522 407.6C232.722 407.734 228.789 406.067 225.722 402.6C222.522 399.134 219.989 394.267 218.122 388C216.255 381.6 214.922 374.134 214.122 365.6C213.189 357.067 212.522 347.8 212.122 337.8L210.522 294H102.922V419.6H134.922V320.4H182.922L183.522 340.8C183.922 349.467 184.522 357.667 185.322 365.4C185.989 373.134 187.055 380.2 188.522 386.6C189.989 392.867 191.922 398.2 194.322 402.6C196.589 407 199.455 410.134 202.922 412ZM242.122 463L241.922 407.6H83.3221V463H113.322V434H212.122V463H242.122Z" fill="#DDFF00"/>
<mask id="path-2-outside-1_526_5725" maskUnits="userSpaceOnUse" x="65.1221" y="128" width="194" height="183" fill="black">
<rect fill="white" x="65.1221" y="128" width="194" height="183"/>
<path d="M161.622 310C175.455 310 188.289 307.75 200.122 303.25C211.789 298.75 221.955 292.417 230.622 284.25C239.122 276.084 245.789 266.5 250.622 255.5C255.289 244.5 257.622 232.5 257.622 219.5C257.622 206.5 255.289 194.5 250.622 183.5C245.789 172.5 239.039 162.917 230.372 154.75C221.705 146.584 211.539 140.25 199.872 135.75C188.205 131.25 175.539 129 161.872 129C148.039 129 135.372 131.25 123.872 135.75C112.205 140.25 102.122 146.584 93.6221 154.75C84.9554 162.917 78.2054 172.5 73.3721 183.5C68.5387 194.334 66.1221 206.334 66.1221 219.5C66.1221 232.5 68.5387 244.584 73.3721 255.75C78.2054 266.75 84.9554 276.334 93.6221 284.5C102.122 292.5 112.205 298.75 123.872 303.25C135.372 307.75 147.955 310 161.622 310ZM161.872 275.5C154.039 275.5 146.872 274.167 140.372 271.5C133.705 268.834 127.872 265 122.872 260C117.872 255 114.039 249.084 111.372 242.25C108.539 235.417 107.122 227.834 107.122 219.5C107.122 211.167 108.539 203.584 111.372 196.75C114.039 189.917 117.872 184 122.872 179C127.705 174 133.455 170.167 140.122 167.5C146.789 164.834 154.039 163.5 161.872 163.5C169.705 163.5 176.955 164.834 183.622 167.5C190.122 170.167 195.872 174 200.872 179C205.872 184 209.789 189.917 212.622 196.75C215.289 203.584 216.622 211.167 216.622 219.5C216.622 227.667 215.289 235.25 212.622 242.25C209.789 249.084 205.955 255 201.122 260C196.122 265 190.289 268.834 183.622 271.5C176.955 274.167 169.705 275.5 161.872 275.5Z"/>
</mask>
<path d="M161.622 310C175.455 310 188.289 307.75 200.122 303.25C211.789 298.75 221.955 292.417 230.622 284.25C239.122 276.084 245.789 266.5 250.622 255.5C255.289 244.5 257.622 232.5 257.622 219.5C257.622 206.5 255.289 194.5 250.622 183.5C245.789 172.5 239.039 162.917 230.372 154.75C221.705 146.584 211.539 140.25 199.872 135.75C188.205 131.25 175.539 129 161.872 129C148.039 129 135.372 131.25 123.872 135.75C112.205 140.25 102.122 146.584 93.6221 154.75C84.9554 162.917 78.2054 172.5 73.3721 183.5C68.5387 194.334 66.1221 206.334 66.1221 219.5C66.1221 232.5 68.5387 244.584 73.3721 255.75C78.2054 266.75 84.9554 276.334 93.6221 284.5C102.122 292.5 112.205 298.75 123.872 303.25C135.372 307.75 147.955 310 161.622 310ZM161.872 275.5C154.039 275.5 146.872 274.167 140.372 271.5C133.705 268.834 127.872 265 122.872 260C117.872 255 114.039 249.084 111.372 242.25C108.539 235.417 107.122 227.834 107.122 219.5C107.122 211.167 108.539 203.584 111.372 196.75C114.039 189.917 117.872 184 122.872 179C127.705 174 133.455 170.167 140.122 167.5C146.789 164.834 154.039 163.5 161.872 163.5C169.705 163.5 176.955 164.834 183.622 167.5C190.122 170.167 195.872 174 200.872 179C205.872 184 209.789 189.917 212.622 196.75C215.289 203.584 216.622 211.167 216.622 219.5C216.622 227.667 215.289 235.25 212.622 242.25C209.789 249.084 205.955 255 201.122 260C196.122 265 190.289 268.834 183.622 271.5C176.955 274.167 169.705 275.5 161.872 275.5Z" fill="#DDFF00"/>
<path d="M200.122 303.25L200.482 304.183L200.478 304.185L200.122 303.25ZM230.622 284.25L231.315 284.971L231.308 284.978L230.622 284.25ZM250.622 255.5L251.543 255.891L251.538 255.903L250.622 255.5ZM250.622 183.5L251.538 183.098L251.543 183.11L250.622 183.5ZM230.372 154.75L231.058 154.022L230.372 154.75ZM199.872 135.75L200.232 134.817L199.872 135.75ZM123.872 135.75L124.236 136.681L124.232 136.683L123.872 135.75ZM93.6221 154.75L94.3149 155.471L94.3079 155.478L93.6221 154.75ZM73.3721 183.5L74.2876 183.903L74.2853 183.908L73.3721 183.5ZM73.3721 255.75L72.4565 256.153L72.4543 256.147L73.3721 255.75ZM93.6221 284.5L92.9367 285.228L92.9363 285.228L93.6221 284.5ZM123.872 303.25L124.232 302.317L124.236 302.319L123.872 303.25ZM140.372 271.5L140.743 270.572L140.752 270.575L140.372 271.5ZM122.872 260L123.579 259.293L122.872 260ZM111.372 242.25L112.296 241.867L112.3 241.877L112.304 241.887L111.372 242.25ZM111.372 196.75L112.304 197.114L112.3 197.124L112.296 197.133L111.372 196.75ZM122.872 179L123.591 179.695L123.585 179.701L123.579 179.707L122.872 179ZM140.122 167.5L140.493 168.429L140.122 167.5ZM183.622 167.5L183.993 166.572L184.002 166.575L183.622 167.5ZM200.872 179L200.165 179.707L200.872 179ZM212.622 196.75L213.546 196.367L213.55 196.377L213.554 196.387L212.622 196.75ZM212.622 242.25L213.557 242.606L213.551 242.62L213.546 242.633L212.622 242.25ZM201.122 260L201.841 260.695L201.835 260.701L201.829 260.707L201.122 260ZM183.622 271.5L183.251 270.572L183.622 271.5ZM161.622 310V309C175.345 309 188.057 306.769 199.767 302.316L200.122 303.25L200.478 304.185C188.521 308.732 175.566 311 161.622 311V310ZM200.122 303.25L199.762 302.317C211.314 297.862 221.369 291.596 229.936 283.522L230.622 284.25L231.308 284.978C222.542 293.238 212.263 299.639 200.482 304.183L200.122 303.25ZM230.622 284.25L229.929 283.529C238.333 275.455 244.925 265.981 249.707 255.098L250.622 255.5L251.538 255.903C246.653 267.02 239.911 276.712 231.315 284.971L230.622 284.25ZM250.622 255.5L249.701 255.11C254.311 244.244 256.622 232.378 256.622 219.5H257.622H258.622C258.622 232.623 256.266 244.757 251.543 255.891L250.622 255.5ZM257.622 219.5H256.622C256.622 206.623 254.311 194.757 249.701 183.891L250.622 183.5L251.543 183.11C256.266 194.244 258.622 206.378 258.622 219.5H257.622ZM250.622 183.5L249.707 183.903C244.927 173.024 238.254 163.552 229.686 155.478L230.372 154.75L231.058 154.022C239.823 162.282 246.651 171.976 251.538 183.098L250.622 183.5ZM230.372 154.75L229.686 155.478C221.119 147.405 211.064 141.139 199.512 136.683L199.872 135.75L200.232 134.817C212.013 139.361 222.292 145.762 231.058 154.022L230.372 154.75ZM199.872 135.75L199.512 136.683C187.971 132.231 175.427 130 161.872 130V129V128C175.65 128 188.44 130.269 200.232 134.817L199.872 135.75ZM161.872 129V130C148.148 130 135.607 132.232 124.236 136.681L123.872 135.75L123.508 134.819C135.137 130.268 147.929 128 161.872 128V129ZM123.872 135.75L124.232 136.683C112.682 141.138 102.713 147.402 94.3149 155.471L93.6221 154.75L92.9292 154.029C101.531 145.765 111.729 139.362 123.512 134.817L123.872 135.75ZM93.6221 154.75L94.3079 155.478C85.7397 163.552 79.0674 173.024 74.2876 183.903L73.3721 183.5L72.4565 183.098C77.3433 171.976 84.1711 162.282 92.9363 154.022L93.6221 154.75ZM73.3721 183.5L74.2853 183.908C69.5152 194.599 67.1221 206.458 67.1221 219.5H66.1221H65.1221C65.1221 206.209 67.5623 194.068 72.4588 183.093L73.3721 183.5ZM66.1221 219.5H67.1221C67.1221 232.373 69.5144 244.32 74.2898 255.353L73.3721 255.75L72.4543 256.147C67.5631 244.847 65.1221 232.627 65.1221 219.5H66.1221ZM73.3721 255.75L74.2876 255.348C79.0674 266.226 85.7397 275.699 94.3079 283.772L93.6221 284.5L92.9363 285.228C84.1711 276.969 77.3433 267.274 72.4565 256.153L73.3721 255.75ZM93.6221 284.5L94.3074 283.772C102.707 291.677 112.677 297.86 124.232 302.317L123.872 303.25L123.512 304.183C111.733 299.64 101.537 293.323 92.9367 285.228L93.6221 284.5ZM123.872 303.25L124.236 302.319C135.609 306.769 148.067 309 161.622 309V310V311C147.844 311 135.136 308.732 123.508 304.181L123.872 303.25ZM161.872 275.5V276.5C153.924 276.5 146.626 275.147 139.993 272.425L140.372 271.5L140.752 270.575C147.118 273.187 154.154 274.5 161.872 274.5V275.5ZM140.372 271.5L140.001 272.429C133.21 269.713 127.262 265.805 122.165 260.707L122.872 260L123.579 259.293C128.482 264.196 134.201 267.955 140.743 270.572L140.372 271.5ZM122.872 260L122.165 260.707C117.064 255.606 113.155 249.571 110.44 242.614L111.372 242.25L112.304 241.887C114.922 248.596 118.681 254.395 123.579 259.293L122.872 260ZM111.372 242.25L110.448 242.633C107.559 235.664 106.122 227.948 106.122 219.5H107.122H108.122C108.122 227.719 109.519 235.17 112.296 241.867L111.372 242.25ZM107.122 219.5H106.122C106.122 211.052 107.559 203.336 110.448 196.367L111.372 196.75L112.296 197.133C109.519 203.831 108.122 211.282 108.122 219.5H107.122ZM111.372 196.75L110.44 196.387C113.155 189.429 117.064 183.395 122.165 178.293L122.872 179L123.579 179.707C118.681 184.606 114.922 190.404 112.304 197.114L111.372 196.75ZM122.872 179L122.153 178.305C127.088 173.2 132.957 169.289 139.751 166.572L140.122 167.5L140.493 168.429C133.953 171.045 128.323 174.8 123.591 179.695L122.872 179ZM140.122 167.5L139.751 166.572C146.546 163.854 153.923 162.5 161.872 162.5V163.5V164.5C154.154 164.5 147.032 165.813 140.493 168.429L140.122 167.5ZM161.872 163.5V162.5C169.821 162.5 177.198 163.854 183.993 166.572L183.622 167.5L183.251 168.429C176.712 165.813 169.59 164.5 161.872 164.5V163.5ZM183.622 167.5L184.002 166.575C190.625 169.292 196.486 173.2 201.579 178.293L200.872 179L200.165 179.707C195.258 174.8 189.619 171.041 183.243 168.425L183.622 167.5ZM200.872 179L201.579 178.293C206.676 183.39 210.665 189.418 213.546 196.367L212.622 196.75L211.698 197.133C208.913 190.415 205.068 184.61 200.165 179.707L200.872 179ZM212.622 196.75L213.554 196.387C216.271 203.351 217.622 211.059 217.622 219.5H216.622H215.622C215.622 211.275 214.306 203.817 211.69 197.114L212.622 196.75ZM216.622 219.5H217.622C217.622 227.778 216.27 235.483 213.557 242.606L212.622 242.25L211.688 241.894C214.307 235.018 215.622 227.556 215.622 219.5H216.622ZM212.622 242.25L213.546 242.633C210.668 249.575 206.767 255.599 201.841 260.695L201.122 260L200.403 259.305C205.144 254.401 208.91 248.592 211.698 241.867L212.622 242.25ZM201.122 260L201.829 260.707C196.732 265.805 190.784 269.713 183.993 272.429L183.622 271.5L183.251 270.572C189.794 267.955 195.512 264.196 200.415 259.293L201.122 260ZM183.622 271.5L183.993 272.429C177.198 275.147 169.821 276.5 161.872 276.5V275.5V274.5C169.59 274.5 176.712 273.187 183.251 270.572L183.622 271.5Z" fill="#DDFF00" mask="url(#path-2-outside-1_526_5725)"/>
<mask id="path-4-outside-2_526_5725" maskUnits="userSpaceOnUse" x="147.761" y="189.294" width="170.266" height="162.755" fill="black">
<rect fill="white" x="147.761" y="189.294" width="170.266" height="162.755"/>
<path d="M149.665 262.844L259.212 350.018L316.374 278.186L302.634 267.508L254.813 327.603L261.714 326.96L161.994 247.351L149.665 262.844Z"/>
</mask>
<path d="M149.665 262.844L259.212 350.018L316.374 278.186L302.634 267.508L254.813 327.603L261.714 326.96L161.994 247.351L149.665 262.844Z" fill="#DDFF00"/>
<path d="M149.665 262.844L149.042 263.626L148.26 263.004L148.882 262.221L149.665 262.844ZM259.212 350.018L259.995 350.641L259.372 351.423L258.59 350.8L259.212 350.018ZM316.374 278.186L316.987 277.397L317.786 278.017L317.156 278.809L316.374 278.186ZM302.634 267.508L301.851 266.885L302.467 266.112L303.248 266.719L302.634 267.508ZM254.813 327.603L254.905 328.598L252.569 328.816L254.03 326.98L254.813 327.603ZM261.714 326.96L262.338 326.179L264.276 327.726L261.807 327.956L261.714 326.96ZM161.994 247.351L161.211 246.728L161.835 245.944L162.618 246.569L161.994 247.351ZM149.665 262.844L150.287 262.061L259.835 349.236L259.212 350.018L258.59 350.8L149.042 263.626L149.665 262.844ZM259.212 350.018L258.43 349.395L315.591 277.563L316.374 278.186L317.156 278.809L259.995 350.641L259.212 350.018ZM316.374 278.186L315.76 278.976L302.02 268.298L302.634 267.508L303.248 266.719L316.987 277.397L316.374 278.186ZM302.634 267.508L303.416 268.131L255.595 328.225L254.813 327.603L254.03 326.98L301.851 266.885L302.634 267.508ZM254.813 327.603L254.72 326.607L261.621 325.965L261.714 326.96L261.807 327.956L254.905 328.598L254.813 327.603ZM261.714 326.96L261.09 327.742L161.37 248.132L161.994 247.351L162.618 246.569L262.338 326.179L261.714 326.96ZM161.994 247.351L162.776 247.973L150.447 263.467L149.665 262.844L148.882 262.221L161.211 246.728L161.994 247.351Z" fill="#DDFF00" mask="url(#path-4-outside-2_526_5725)"/>
<mask id="path-6-outside-3_526_5725" maskUnits="userSpaceOnUse" x="21.9816" y="242.153" width="130.636" height="163.552" fill="black">
<rect fill="white" x="21.9816" y="242.153" width="130.636" height="163.552"/>
<path d="M37.8539 404.145L150.854 254.897L136.663 244.153L23.6626 393.4L37.8539 404.145Z"/>
</mask>
<path d="M37.8539 404.145L150.854 254.897L136.663 244.153L23.6626 393.4L37.8539 404.145Z" fill="#DDFF00"/>
<path d="M37.8539 404.145L38.6511 404.748L38.0475 405.545L37.2502 404.942L37.8539 404.145ZM150.854 254.897L151.458 254.1L152.255 254.704L151.652 255.501L150.854 254.897ZM136.663 244.153L135.866 243.549L136.469 242.752L137.267 243.355L136.663 244.153ZM23.6626 393.4L23.059 394.197L22.2617 393.593L22.8654 392.796L23.6626 393.4ZM37.8539 404.145L37.0566 403.541L150.057 254.294L150.854 254.897L151.652 255.501L38.6511 404.748L37.8539 404.145ZM150.854 254.897L150.251 255.695L136.059 244.95L136.663 244.153L137.267 243.355L151.458 254.1L150.854 254.897ZM136.663 244.153L137.46 244.756L24.4599 394.003L23.6626 393.4L22.8654 392.796L135.866 243.549L136.663 244.153ZM23.6626 393.4L24.2663 392.603L38.4575 403.347L37.8539 404.145L37.2502 404.942L23.059 394.197L23.6626 393.4Z" fill="#DDFF00" mask="url(#path-6-outside-3_526_5725)"/>
<mask id="path-8-outside-4_526_5725" maskUnits="userSpaceOnUse" x="149.819" y="48.3322" width="96.8789" height="181.228" fill="black">
<rect fill="white" x="149.819" y="48.3322" width="96.8789" height="181.228"/>
<path d="M167.611 228.054L245.125 57.656L228.923 50.2855L151.408 220.683L167.611 228.054Z"/>
</mask>
<path d="M167.611 228.054L245.125 57.656L228.923 50.2855L151.408 220.683L167.611 228.054Z" fill="#DDFF00"/>
<path d="M167.611 228.054L168.521 228.468L168.107 229.378L167.197 228.964L167.611 228.054ZM245.125 57.656L245.539 56.7458L246.45 57.1599L246.035 58.0701L245.125 57.656ZM228.923 50.2855L228.013 49.8714L228.427 48.9612L229.337 49.3753L228.923 50.2855ZM151.408 220.683L150.994 221.593L150.084 221.179L150.498 220.269L151.408 220.683ZM167.611 228.054L166.7 227.64L244.215 57.242L245.125 57.656L246.035 58.0701L168.521 228.468L167.611 228.054ZM245.125 57.656L244.711 58.5663L228.509 51.1958L228.923 50.2855L229.337 49.3753L245.539 56.7458L245.125 57.656ZM228.923 50.2855L229.833 50.6996L152.319 221.097L151.408 220.683L150.498 220.269L228.013 49.8714L228.923 50.2855ZM151.408 220.683L151.822 219.773L168.025 227.143L167.611 228.054L167.197 228.964L150.994 221.593L151.408 220.683Z" fill="#DDFF00" mask="url(#path-8-outside-4_526_5725)"/>
<mask id="path-10-outside-5_526_5725" maskUnits="userSpaceOnUse" x="81.1253" y="48.3193" width="100.639" height="179.79" fill="black">
<rect fill="white" x="81.1253" y="48.3193" width="100.639" height="179.79"/>
<path d="M180.342 218.766L98.9304 50.195L82.9017 57.936L164.313 226.507L180.342 218.766Z"/>
</mask>
<path d="M180.342 218.766L98.9304 50.195L82.9017 57.936L164.313 226.507L180.342 218.766Z" fill="#DDFF00"/>
<path d="M180.342 218.766L181.242 218.331L181.677 219.231L180.777 219.666L180.342 218.766ZM98.9304 50.195L98.4955 49.2945L99.3959 48.8596L99.8308 49.7601L98.9304 50.195ZM82.9017 57.936L82.0013 58.3709L81.5664 57.4704L82.4669 57.0355L82.9017 57.936ZM164.313 226.507L164.748 227.407L163.848 227.842L163.413 226.941L164.313 226.507ZM180.342 218.766L179.441 219.2L98.0299 50.6299L98.9304 50.195L99.8308 49.7601L181.242 218.331L180.342 218.766ZM98.9304 50.195L99.3652 51.0955L83.3366 58.8365L82.9017 57.936L82.4669 57.0355L98.4955 49.2945L98.9304 50.195ZM82.9017 57.936L83.8022 57.5011L165.214 226.072L164.313 226.507L163.413 226.941L82.0013 58.3709L82.9017 57.936ZM164.313 226.507L163.878 225.606L179.907 217.865L180.342 218.766L180.777 219.666L164.748 227.407L164.313 226.507Z" fill="#DDFF00" mask="url(#path-10-outside-5_526_5725)"/>
<path d="M144.248 213.056C147.168 212.578 152.955 211.608 159.443 212.01C169.111 212.61 150.571 240.587 145.974 244.601C144.343 246.025 141.831 246.031 139.086 245.947C132.224 245.737 128.085 239.029 125.646 234.906C122.735 229.986 123.876 221.756 125.233 215.632C125.848 212.859 129.116 211.2 132.576 209.665C141.791 205.575 149.914 208.43 153.337 210.861C154.987 212.033 155.035 215.415 154.484 219.684C153.348 228.485 147.597 231.986 143.017 234.434C138.255 236.98 132.223 234.442 128.72 232.086C125.031 229.604 125.153 224.366 125.328 220.563C125.4 218.996 126.556 218.319 128.035 217.83C131.459 216.697 136.147 216.832 140.275 217.125C141.961 217.245 142.716 218.077 143.306 218.911C144.506 220.607 144.697 223.233 144.532 226.027C144.141 232.668 136.95 238.837 132.906 242.141C131.036 243.669 128.066 243.939 125.146 244.045C122.791 244.131 121.026 242.525 119.483 240.964C117.868 239.331 116.219 236.461 113.561 229.937C104.569 207.865 106.062 198.845 107.266 195.324C110.396 186.172 128.456 184.011 130.345 183.993C131.238 183.985 131.942 184.648 131.953 185.45C132.017 190.199 125.082 195.104 117.896 211.525C111.84 225.366 109.888 235.258 108.766 237.175C108.24 238.075 107.417 238.576 106.541 238.509C100.375 238.032 98.8486 226.132 97.8161 220.503C97.2558 217.449 98.2171 214.65 100.534 211.956C102.016 210.233 104.94 208.587 112.211 204.318C119.482 200.049 131.222 193.411 138.683 189.564C148.738 184.38 154.119 183.793 157.527 183.957C158.752 184.016 158.748 185.209 156.92 194.607C155.093 204.005 151.389 221.873 149.188 231.923C146.606 243.71 145.396 246.139 144.308 247.703C141.159 252.227 133.718 252.608 128.618 252.274C123.967 251.969 120.767 248.759 118.489 244.786C112.897 235.037 118.108 216.257 120.286 209.51C123.219 200.42 133.78 190.076 143.386 182.11C148.381 177.968 156.925 176.508 167.517 175.132C170.591 174.733 174.437 175.023 176.684 175.445C178.931 175.867 179.487 176.695 179.783 177.796C180.424 180.179 178.874 188.459 176.226 200.694C174.186 210.121 168.312 219.538 162.122 229.52C155.568 240.088 151.309 241.853 147.099 243.012C146.141 243.275 145.226 242.696 144.453 241.898C141.035 238.364 142 231.364 145.469 219.013C148.944 206.638 158.239 199.024 166.966 192.794C172.622 188.756 178.002 187.977 179.889 187.908C180.663 187.88 180.929 188.896 176.602 200.03C172.274 211.163 163.31 232.646 156.775 246.574C143.261 275.372 136.593 278.6 135.122 279.068C134.436 279.286 133.769 278.154 133.414 276.868C133.058 275.582 133.007 273.841 133.305 272.396C133.602 270.952 134.249 269.855 139.182 263.699C144.114 257.542 153.313 246.359 162.724 233.499C172.136 220.64 181.483 206.444 186.848 198.45C192.214 190.455 193.316 189.093 194.128 188.952C194.939 188.81 195.428 189.931 195.581 191.052C195.735 192.174 195.539 193.262 188.661 211.428C181.784 229.594 168.231 264.805 161.021 283.394C153.812 301.983 153.358 302.882 153.038 302.918C152.719 302.954 152.548 302.099 156.831 286.275C161.114 270.452 169.856 239.686 174.294 224.271C178.731 208.856 178.6 209.724 178.242 210.986C177.884 212.248 177.304 213.878 170.968 225.768C164.633 237.658 152.561 259.76 146.709 270.804C140.856 281.848 141.589 281.163 149.494 270.993C157.4 260.823 172.455 241.187 182.002 227.644C191.549 214.102 195.132 207.248 196.924 204.745C198.717 202.243 198.611 204.299 194.9 214.555C191.189 224.812 183.877 243.206 179.224 255.908C174.571 268.61 172.8 275.062 172.278 278.019C171.888 280.221 176.919 272.402 184.547 256.146C193.862 236.297 197.954 223.81 198.913 222.46C199.398 221.777 200.128 221.291 200.558 221.633C201.879 222.685 201.252 226.057 198.487 237.346C196.09 247.135 190.535 264.872 190.363 268.85C190.191 272.828 195.279 262.434 199.268 252.482C206.817 233.647 209.037 221.029 209.307 216.263C209.573 211.581 208.14 208.925 207.682 207.131C206.699 203.289 196.837 200.434 192.302 196.541C189.415 194.063 187.126 187.401 183.206 181.06C181.784 178.761 182.298 177.887 186.71 177.732C199.612 177.276 209.632 178.841 212.604 179.841C216.607 181.187 218.87 183.576 219.255 185.407C220.51 191.37 217.683 198.609 216.247 202.014C215.856 202.94 214.794 203.634 213.869 204.088C210.19 205.895 199.126 197.444 193.108 191.69C191.792 190.431 192.232 188.206 192.746 186.691C194.296 182.123 202.983 186.027 204.583 187.258C209.08 190.719 208.952 197.42 209.466 197.756C214.683 201.172 201.62 184.83 196.441 181.335C192.168 178.452 189.613 174.534 184.898 169.638C181.558 166.17 176.421 164.326 170.144 163.18C152.491 159.959 142.805 165.663 133.585 170.403C129.404 172.553 125.89 182.401 123.91 190.971C123.803 198.799 124.557 204.434 125.755 205.841C126.186 206.667 126.258 207.718 126.531 209.162" stroke="#DDFF00" stroke-width="20" stroke-linecap="round"/>
<path d="M218.999 194.499C227.694 194.499 235.127 197.52 241.269 203.556L241.838 204.106C247.625 209.853 250.499 217.568 250.499 227.195C250.499 236.624 247.431 244.511 241.284 250.818L241.276 250.826C235.133 256.866 227.698 259.891 218.999 259.891C210.3 259.891 202.865 256.866 196.722 250.826L196.714 250.818C190.567 244.511 187.499 236.624 187.499 227.195C187.499 217.258 190.562 209.357 196.729 203.556C202.871 197.52 210.304 194.499 218.999 194.499Z" fill="#030404" stroke="#DDFF00"/>
<path d="M128.999 194.499C137.694 194.499 145.127 197.52 151.269 203.556L151.838 204.106C157.625 209.853 160.499 217.568 160.499 227.195C160.499 236.624 157.431 244.511 151.284 250.818L151.276 250.826C145.133 256.866 137.698 259.891 128.999 259.891C120.3 259.891 112.865 256.866 106.722 250.826L106.714 250.818C100.567 244.511 97.4991 236.624 97.499 227.195C97.499 217.258 100.562 209.357 106.729 203.556C112.871 197.52 120.304 194.499 128.999 194.499Z" fill="#030404" stroke="#DDFF00"/>
</svg>
