<svg width="361" height="484" viewBox="0 0 361 484" fill="none" xmlns="http://www.w3.org/2000/svg">
<path d="M157.2 412L122.6 407.6C127.4 407.734 131.333 406.067 134.4 402.6C137.6 399.134 140.133 394.267 142 388C143.867 381.6 145.2 374.134 146 365.6C146.933 357.067 147.6 347.8 148 337.8L149.6 294H257.2V419.6H225.2V320.4H177.2L176.6 340.8C176.2 349.467 175.6 357.667 174.8 365.4C174.133 373.134 173.067 380.2 171.6 386.6C170.133 392.867 168.2 398.2 165.8 402.6C163.533 407 160.667 410.134 157.2 412ZM118 463L118.2 407.6H276.8V463H246.8V434H148V463H118Z" fill="#DDFF00"/>
<mask id="path-2-outside-1_526_5736" maskUnits="userSpaceOnUse" x="101" y="128" width="194" height="183" fill="black">
<rect fill="white" x="101" y="128" width="194" height="183"/>
<path d="M198.5 310C184.667 310 171.833 307.75 160 303.25C148.333 298.75 138.167 292.417 129.5 284.25C121 276.084 114.333 266.5 109.5 255.5C104.833 244.5 102.5 232.5 102.5 219.5C102.5 206.5 104.833 194.5 109.5 183.5C114.333 172.5 121.083 162.917 129.75 154.75C138.417 146.584 148.583 140.25 160.25 135.75C171.917 131.25 184.583 129 198.25 129C212.083 129 224.75 131.25 236.25 135.75C247.917 140.25 258 146.584 266.5 154.75C275.167 162.917 281.917 172.5 286.75 183.5C291.583 194.334 294 206.334 294 219.5C294 232.5 291.583 244.584 286.75 255.75C281.917 266.75 275.167 276.334 266.5 284.5C258 292.5 247.917 298.75 236.25 303.25C224.75 307.75 212.167 310 198.5 310ZM198.25 275.5C206.083 275.5 213.25 274.167 219.75 271.5C226.417 268.834 232.25 265 237.25 260C242.25 255 246.083 249.084 248.75 242.25C251.583 235.417 253 227.834 253 219.5C253 211.167 251.583 203.584 248.75 196.75C246.083 189.917 242.25 184 237.25 179C232.417 174 226.667 170.167 220 167.5C213.333 164.834 206.083 163.5 198.25 163.5C190.417 163.5 183.167 164.834 176.5 167.5C170 170.167 164.25 174 159.25 179C154.25 184 150.333 189.917 147.5 196.75C144.833 203.584 143.5 211.167 143.5 219.5C143.5 227.667 144.833 235.25 147.5 242.25C150.333 249.084 154.167 255 159 260C164 265 169.833 268.834 176.5 271.5C183.167 274.167 190.417 275.5 198.25 275.5Z"/>
</mask>
<path d="M198.5 310C184.667 310 171.833 307.75 160 303.25C148.333 298.75 138.167 292.417 129.5 284.25C121 276.084 114.333 266.5 109.5 255.5C104.833 244.5 102.5 232.5 102.5 219.5C102.5 206.5 104.833 194.5 109.5 183.5C114.333 172.5 121.083 162.917 129.75 154.75C138.417 146.584 148.583 140.25 160.25 135.75C171.917 131.25 184.583 129 198.25 129C212.083 129 224.75 131.25 236.25 135.75C247.917 140.25 258 146.584 266.5 154.75C275.167 162.917 281.917 172.5 286.75 183.5C291.583 194.334 294 206.334 294 219.5C294 232.5 291.583 244.584 286.75 255.75C281.917 266.75 275.167 276.334 266.5 284.5C258 292.5 247.917 298.75 236.25 303.25C224.75 307.75 212.167 310 198.5 310ZM198.25 275.5C206.083 275.5 213.25 274.167 219.75 271.5C226.417 268.834 232.25 265 237.25 260C242.25 255 246.083 249.084 248.75 242.25C251.583 235.417 253 227.834 253 219.5C253 211.167 251.583 203.584 248.75 196.75C246.083 189.917 242.25 184 237.25 179C232.417 174 226.667 170.167 220 167.5C213.333 164.834 206.083 163.5 198.25 163.5C190.417 163.5 183.167 164.834 176.5 167.5C170 170.167 164.25 174 159.25 179C154.25 184 150.333 189.917 147.5 196.75C144.833 203.584 143.5 211.167 143.5 219.5C143.5 227.667 144.833 235.25 147.5 242.25C150.333 249.084 154.167 255 159 260C164 265 169.833 268.834 176.5 271.5C183.167 274.167 190.417 275.5 198.25 275.5Z" fill="#DDFF00"/>
<path d="M160 303.25L159.64 304.183L159.645 304.185L160 303.25ZM129.5 284.25L128.807 284.971L128.814 284.978L129.5 284.25ZM109.5 255.5L108.579 255.891L108.584 255.903L109.5 255.5ZM109.5 183.5L108.584 183.098L108.579 183.11L109.5 183.5ZM129.75 154.75L129.064 154.022L129.75 154.75ZM160.25 135.75L159.89 134.817L160.25 135.75ZM236.25 135.75L235.886 136.681L235.89 136.683L236.25 135.75ZM266.5 154.75L265.807 155.471L265.814 155.478L266.5 154.75ZM286.75 183.5L285.834 183.903L285.837 183.908L286.75 183.5ZM286.75 255.75L287.666 256.153L287.668 256.147L286.75 255.75ZM266.5 284.5L267.185 285.228L267.186 285.228L266.5 284.5ZM236.25 303.25L235.89 302.317L235.886 302.319L236.25 303.25ZM219.75 271.5L219.379 270.572L219.37 270.575L219.75 271.5ZM237.25 260L236.543 259.293L237.25 260ZM248.75 242.25L247.826 241.867L247.822 241.877L247.818 241.887L248.75 242.25ZM248.75 196.75L247.818 197.114L247.822 197.124L247.826 197.133L248.75 196.75ZM237.25 179L236.531 179.695L236.537 179.701L236.543 179.707L237.25 179ZM220 167.5L219.629 168.429L220 167.5ZM176.5 167.5L176.129 166.572L176.12 166.575L176.5 167.5ZM159.25 179L159.957 179.707L159.25 179ZM147.5 196.75L146.576 196.367L146.572 196.377L146.568 196.387L147.5 196.75ZM147.5 242.25L146.566 242.606L146.571 242.62L146.576 242.633L147.5 242.25ZM159 260L158.281 260.695L158.287 260.701L158.293 260.707L159 260ZM176.5 271.5L176.871 270.572L176.5 271.5ZM198.5 310V309C184.777 309 172.065 306.769 160.355 302.316L160 303.25L159.645 304.185C171.602 308.732 184.556 311 198.5 311V310ZM160 303.25L160.36 302.317C148.808 297.862 138.753 291.596 130.186 283.522L129.5 284.25L128.814 284.978C137.58 293.238 147.859 299.639 159.64 304.183L160 303.25ZM129.5 284.25L130.193 283.529C121.789 275.455 115.197 265.981 110.416 255.098L109.5 255.5L108.584 255.903C113.469 267.02 120.211 276.712 128.807 284.971L129.5 284.25ZM109.5 255.5L110.421 255.11C105.811 244.244 103.5 232.378 103.5 219.5H102.5H101.5C101.5 232.623 103.856 244.757 108.579 255.891L109.5 255.5ZM102.5 219.5H103.5C103.5 206.623 105.811 194.757 110.421 183.891L109.5 183.5L108.579 183.11C103.856 194.244 101.5 206.378 101.5 219.5H102.5ZM109.5 183.5L110.416 183.903C115.195 173.024 121.868 163.552 130.436 155.478L129.75 154.75L129.064 154.022C120.299 162.282 113.471 171.976 108.584 183.098L109.5 183.5ZM129.75 154.75L130.436 155.478C139.003 147.405 149.058 141.139 160.61 136.683L160.25 135.75L159.89 134.817C148.109 139.361 137.83 145.762 129.064 154.022L129.75 154.75ZM160.25 135.75L160.61 136.683C172.152 132.231 184.695 130 198.25 130V129V128C184.472 128 171.682 130.269 159.89 134.817L160.25 135.75ZM198.25 129V130C211.974 130 224.515 132.232 235.886 136.681L236.25 135.75L236.614 134.819C224.985 130.268 212.193 128 198.25 128V129ZM236.25 135.75L235.89 136.683C247.44 141.138 257.409 147.402 265.807 155.471L266.5 154.75L267.193 154.029C258.591 145.765 248.393 139.362 236.61 134.817L236.25 135.75ZM266.5 154.75L265.814 155.478C274.382 163.552 281.055 173.024 285.834 183.903L286.75 183.5L287.666 183.098C282.779 171.976 275.951 162.282 267.186 154.022L266.5 154.75ZM286.75 183.5L285.837 183.908C290.607 194.599 293 206.458 293 219.5H294H295C295 206.209 292.56 194.068 287.663 183.093L286.75 183.5ZM294 219.5H293C293 232.373 290.608 244.32 285.832 255.353L286.75 255.75L287.668 256.147C292.559 244.847 295 232.627 295 219.5H294ZM286.75 255.75L285.834 255.348C281.055 266.226 274.382 275.699 265.814 283.772L266.5 284.5L267.186 285.228C275.951 276.969 282.779 267.274 287.666 256.153L286.75 255.75ZM266.5 284.5L265.815 283.772C257.415 291.677 247.445 297.86 235.89 302.317L236.25 303.25L236.61 304.183C248.389 299.64 258.585 293.323 267.185 285.228L266.5 284.5ZM236.25 303.25L235.886 302.319C224.513 306.769 212.055 309 198.5 309V310V311C212.278 311 224.987 308.732 236.614 304.181L236.25 303.25ZM198.25 275.5V276.5C206.199 276.5 213.496 275.147 220.13 272.425L219.75 271.5L219.37 270.575C213.004 273.187 205.968 274.5 198.25 274.5V275.5ZM219.75 271.5L220.121 272.429C226.912 269.713 232.86 265.805 237.957 260.707L237.25 260L236.543 259.293C231.64 264.196 225.922 267.955 219.379 270.572L219.75 271.5ZM237.25 260L237.957 260.707C243.059 255.606 246.967 249.571 249.682 242.614L248.75 242.25L247.818 241.887C245.2 248.596 241.441 254.395 236.543 259.293L237.25 260ZM248.75 242.25L249.674 242.633C252.563 235.664 254 227.948 254 219.5H253H252C252 227.719 250.603 235.17 247.826 241.867L248.75 242.25ZM253 219.5H254C254 211.052 252.563 203.336 249.674 196.367L248.75 196.75L247.826 197.133C250.603 203.831 252 211.282 252 219.5H253ZM248.75 196.75L249.682 196.387C246.967 189.429 243.059 183.395 237.957 178.293L237.25 179L236.543 179.707C241.441 184.606 245.2 190.404 247.818 197.114L248.75 196.75ZM237.25 179L237.969 178.305C233.034 173.2 227.165 169.289 220.371 166.572L220 167.5L219.629 168.429C226.169 171.045 231.799 174.8 236.531 179.695L237.25 179ZM220 167.5L220.371 166.572C213.576 163.854 206.199 162.5 198.25 162.5V163.5V164.5C205.968 164.5 213.09 165.813 219.629 168.429L220 167.5ZM198.25 163.5V162.5C190.301 162.5 182.924 163.854 176.129 166.572L176.5 167.5L176.871 168.429C183.41 165.813 190.532 164.5 198.25 164.5V163.5ZM176.5 167.5L176.12 166.575C169.497 169.292 163.636 173.2 158.543 178.293L159.25 179L159.957 179.707C164.864 174.8 170.503 171.041 176.88 168.425L176.5 167.5ZM159.25 179L158.543 178.293C153.446 183.39 149.457 189.418 146.576 196.367L147.5 196.75L148.424 197.133C151.209 190.415 155.054 184.61 159.957 179.707L159.25 179ZM147.5 196.75L146.568 196.387C143.851 203.351 142.5 211.059 142.5 219.5H143.5H144.5C144.5 211.275 145.816 203.817 148.432 197.114L147.5 196.75ZM143.5 219.5H142.5C142.5 227.778 143.852 235.483 146.566 242.606L147.5 242.25L148.434 241.894C145.815 235.018 144.5 227.556 144.5 219.5H143.5ZM147.5 242.25L146.576 242.633C149.455 249.575 153.355 255.599 158.281 260.695L159 260L159.719 259.305C154.978 254.401 151.212 248.592 148.424 241.867L147.5 242.25ZM159 260L158.293 260.707C163.39 265.805 169.338 269.713 176.129 272.429L176.5 271.5L176.871 270.572C170.328 267.955 164.61 264.196 159.707 259.293L159 260ZM176.5 271.5L176.129 272.429C182.924 275.147 190.301 276.5 198.25 276.5V275.5V274.5C190.532 274.5 183.41 273.187 176.871 270.572L176.5 271.5Z" fill="#DDFF00" mask="url(#path-2-outside-1_526_5736)"/>
<mask id="path-4-outside-2_526_5736" maskUnits="userSpaceOnUse" x="42.0942" y="189.294" width="170.266" height="162.755" fill="black">
<rect fill="white" x="42.0942" y="189.294" width="170.266" height="162.755"/>
<path d="M210.457 262.844L100.91 350.018L43.7484 278.186L57.4882 267.508L105.309 327.603L98.4082 326.96L198.128 247.351L210.457 262.844Z"/>
</mask>
<path d="M210.457 262.844L100.91 350.018L43.7484 278.186L57.4882 267.508L105.309 327.603L98.4082 326.96L198.128 247.351L210.457 262.844Z" fill="#DDFF00"/>
<path d="M210.457 262.844L211.08 263.626L211.862 263.004L211.24 262.221L210.457 262.844ZM100.91 350.018L100.127 350.641L100.75 351.423L101.532 350.8L100.91 350.018ZM43.7484 278.186L43.1348 277.397L42.3361 278.017L42.9659 278.809L43.7484 278.186ZM57.4882 267.508L58.2706 266.885L57.6551 266.112L56.8745 266.719L57.4882 267.508ZM105.309 327.603L105.217 328.598L107.553 328.816L106.092 326.98L105.309 327.603ZM98.4082 326.96L97.7843 326.179L95.8461 327.726L98.3155 327.956L98.4082 326.96ZM198.128 247.351L198.911 246.728L198.287 245.944L197.505 246.569L198.128 247.351ZM210.457 262.844L209.835 262.061L100.287 349.236L100.91 350.018L101.532 350.8L211.08 263.626L210.457 262.844ZM100.91 350.018L101.692 349.395L44.5309 277.563L43.7484 278.186L42.9659 278.809L100.127 350.641L100.91 350.018ZM43.7484 278.186L44.3621 278.976L58.1018 268.298L57.4882 267.508L56.8745 266.719L43.1348 277.397L43.7484 278.186ZM57.4882 267.508L56.7057 268.131L104.527 328.225L105.309 327.603L106.092 326.98L58.2706 266.885L57.4882 267.508ZM105.309 327.603L105.402 326.607L98.5009 325.965L98.4082 326.96L98.3155 327.956L105.217 328.598L105.309 327.603ZM98.4082 326.96L99.0321 327.742L198.752 248.132L198.128 247.351L197.505 246.569L97.7843 326.179L98.4082 326.96ZM198.128 247.351L197.346 247.973L209.675 263.467L210.457 262.844L211.24 262.221L198.911 246.728L198.128 247.351Z" fill="#DDFF00" mask="url(#path-4-outside-2_526_5736)"/>
<mask id="path-6-outside-3_526_5736" maskUnits="userSpaceOnUse" x="207.505" y="242.153" width="130.636" height="163.552" fill="black">
<rect fill="white" x="207.505" y="242.153" width="130.636" height="163.552"/>
<path d="M322.269 404.145L209.268 254.897L223.459 244.153L336.46 393.4L322.269 404.145Z"/>
</mask>
<path d="M322.269 404.145L209.268 254.897L223.459 244.153L336.46 393.4L322.269 404.145Z" fill="#DDFF00"/>
<path d="M322.269 404.145L321.471 404.748L322.075 405.545L322.872 404.942L322.269 404.145ZM209.268 254.897L208.665 254.1L207.867 254.704L208.471 255.501L209.268 254.897ZM223.459 244.153L224.257 243.549L223.653 242.752L222.856 243.355L223.459 244.153ZM336.46 393.4L337.064 394.197L337.861 393.593L337.257 392.796L336.46 393.4ZM322.269 404.145L323.066 403.541L210.065 254.294L209.268 254.897L208.471 255.501L321.471 404.748L322.269 404.145ZM209.268 254.897L209.872 255.695L224.063 244.95L223.459 244.153L222.856 243.355L208.665 254.1L209.268 254.897ZM223.459 244.153L222.662 244.756L335.663 394.003L336.46 393.4L337.257 392.796L224.257 243.549L223.459 244.153ZM336.46 393.4L335.856 392.603L321.665 403.347L322.269 404.145L322.872 404.942L337.064 394.197L336.46 393.4Z" fill="#DDFF00" mask="url(#path-6-outside-3_526_5736)"/>
<mask id="path-8-outside-4_526_5736" maskUnits="userSpaceOnUse" x="113.424" y="48.3322" width="96.8789" height="181.228" fill="black">
<rect fill="white" x="113.424" y="48.3322" width="96.8789" height="181.228"/>
<path d="M192.511 228.054L114.997 57.656L131.199 50.2855L208.714 220.683L192.511 228.054Z"/>
</mask>
<path d="M192.511 228.054L114.997 57.656L131.199 50.2855L208.714 220.683L192.511 228.054Z" fill="#DDFF00"/>
<path d="M192.511 228.054L191.601 228.468L192.015 229.378L192.926 228.964L192.511 228.054ZM114.997 57.656L114.583 56.7458L113.673 57.1599L114.087 58.0701L114.997 57.656ZM131.199 50.2855L132.109 49.8714L131.695 48.9612L130.785 49.3753L131.199 50.2855ZM208.714 220.683L209.128 221.593L210.038 221.179L209.624 220.269L208.714 220.683ZM192.511 228.054L193.422 227.64L115.907 57.242L114.997 57.656L114.087 58.0701L191.601 228.468L192.511 228.054ZM114.997 57.656L115.411 58.5663L131.613 51.1958L131.199 50.2855L130.785 49.3753L114.583 56.7458L114.997 57.656ZM131.199 50.2855L130.289 50.6996L207.804 221.097L208.714 220.683L209.624 220.269L132.109 49.8714L131.199 50.2855ZM208.714 220.683L208.3 219.773L192.097 227.143L192.511 228.054L192.926 228.964L209.128 221.593L208.714 220.683Z" fill="#DDFF00" mask="url(#path-8-outside-4_526_5736)"/>
<mask id="path-10-outside-5_526_5736" maskUnits="userSpaceOnUse" x="178.359" y="48.3191" width="100.639" height="179.79" fill="black">
<rect fill="white" x="178.359" y="48.3191" width="100.639" height="179.79"/>
<path d="M179.781 218.765L261.192 50.1947L277.221 57.9358L195.81 226.506L179.781 218.765Z"/>
</mask>
<path d="M179.781 218.765L261.192 50.1947L277.221 57.9358L195.81 226.506L179.781 218.765Z" fill="#DDFF00"/>
<path d="M179.781 218.765L178.881 218.33L178.446 219.231L179.346 219.666L179.781 218.765ZM261.192 50.1947L261.627 49.2943L260.727 48.8594L260.292 49.7598L261.192 50.1947ZM277.221 57.9358L278.122 58.3707L278.556 57.4702L277.656 57.0353L277.221 57.9358ZM195.81 226.506L195.375 227.407L196.275 227.842L196.71 226.941L195.81 226.506ZM179.781 218.765L180.681 219.2L262.093 50.6296L261.192 50.1947L260.292 49.7598L178.881 218.33L179.781 218.765ZM261.192 50.1947L260.758 51.0952L276.786 58.8363L277.221 57.9358L277.656 57.0353L261.627 49.2943L261.192 50.1947ZM277.221 57.9358L276.321 57.5009L194.909 226.071L195.81 226.506L196.71 226.941L278.122 58.3707L277.221 57.9358ZM195.81 226.506L196.245 225.606L180.216 217.865L179.781 218.765L179.346 219.666L195.375 227.407L195.81 226.506Z" fill="#DDFF00" mask="url(#path-10-outside-5_526_5736)"/>
<path d="M215.875 213.056C212.955 212.578 207.168 211.608 200.679 212.01C191.012 212.61 209.552 240.587 214.148 244.601C215.779 246.025 218.292 246.031 221.037 245.947C227.899 245.737 232.037 239.029 234.477 234.906C237.388 229.986 236.247 221.756 234.889 215.632C234.275 212.859 231.007 211.2 227.547 209.665C218.331 205.575 210.209 208.43 206.786 210.861C205.136 212.033 205.087 215.415 205.638 219.684C206.775 228.485 212.526 231.986 217.105 234.434C221.867 236.98 227.899 234.442 231.402 232.086C235.092 229.604 234.97 224.366 234.795 220.563C234.723 218.996 233.566 218.319 232.087 217.83C228.664 216.697 223.975 216.832 219.847 217.125C218.162 217.245 217.407 218.077 216.817 218.911C215.617 220.607 215.426 223.233 215.59 226.027C215.982 232.668 223.172 238.837 227.217 242.141C229.087 243.669 232.057 243.939 234.977 244.045C237.332 244.131 239.096 242.525 240.64 240.964C242.254 239.331 243.904 236.461 246.561 229.937C255.553 207.865 254.06 198.845 252.856 195.324C249.726 186.172 231.667 184.011 229.778 183.993C228.885 183.985 228.181 184.648 228.17 185.45C228.105 190.199 235.041 195.104 242.226 211.525C248.283 225.366 250.235 235.258 251.356 237.175C251.883 238.075 252.706 238.576 253.582 238.509C259.748 238.032 261.274 226.132 262.306 220.503C262.867 217.449 261.905 214.65 259.589 211.956C258.107 210.233 255.183 208.587 247.912 204.318C240.64 200.049 228.901 193.411 221.439 189.564C211.385 184.38 206.004 183.793 202.595 183.957C201.371 184.016 201.374 185.209 203.202 194.607C205.03 204.005 208.733 221.873 210.935 231.923C213.516 243.71 214.727 246.139 215.815 247.703C218.963 252.227 226.405 252.608 231.505 252.274C236.155 251.969 239.356 248.759 241.634 244.786C247.225 235.037 242.014 216.257 239.837 209.51C236.903 200.42 226.343 190.076 216.737 182.11C211.742 177.968 203.198 176.508 192.606 175.132C189.531 174.733 185.686 175.023 183.439 175.445C181.192 175.867 180.636 176.695 180.34 177.796C179.698 180.179 181.248 188.459 183.897 200.694C185.937 210.121 191.81 219.538 198.001 229.52C204.555 240.088 208.814 241.853 213.024 243.012C213.981 243.275 214.897 242.696 215.669 241.898C219.088 238.364 218.122 231.364 214.654 219.013C211.178 206.638 201.884 199.024 193.157 192.794C187.5 188.756 182.12 187.977 180.234 187.908C179.459 187.88 179.193 188.896 183.521 200.03C187.849 211.163 196.813 232.646 203.348 246.574C216.861 275.372 223.529 278.6 225.001 279.068C225.687 279.286 226.353 278.154 226.709 276.868C227.065 275.582 227.115 273.841 226.818 272.396C226.521 270.952 225.873 269.855 220.941 263.699C216.008 257.542 206.81 246.359 197.398 233.499C187.986 220.64 178.64 206.444 173.274 198.45C167.908 190.455 166.807 189.093 165.995 188.952C165.183 188.81 164.695 189.931 164.541 191.052C164.388 192.174 164.584 193.262 171.461 211.428C178.339 229.594 191.892 264.805 199.101 283.394C206.31 301.983 206.765 302.882 207.084 302.918C207.404 302.954 207.574 302.099 203.291 286.275C199.008 270.452 190.266 239.686 185.829 224.271C181.391 208.856 181.523 209.724 181.881 210.986C182.239 212.248 182.819 213.878 189.154 225.768C195.489 237.658 207.562 259.76 213.414 270.804C219.267 281.848 218.533 281.163 210.628 270.993C202.723 260.823 187.668 241.187 178.12 227.644C168.573 214.102 164.991 207.248 163.198 204.745C161.405 202.243 161.511 204.299 165.222 214.555C168.933 224.812 176.246 243.206 180.898 255.908C185.551 268.61 187.322 275.062 187.845 278.019C188.234 280.221 183.204 272.402 175.575 256.146C166.261 236.297 162.168 223.81 161.21 222.46C160.725 221.777 159.995 221.291 159.565 221.633C158.244 222.685 158.871 226.057 161.635 237.346C164.033 247.135 169.587 264.872 169.759 268.85C169.932 272.828 164.844 262.434 160.855 252.482C153.305 233.647 151.085 221.029 150.815 216.263C150.55 211.581 151.982 208.925 152.441 207.131C153.423 203.289 163.286 200.434 167.821 196.541C170.707 194.063 172.997 187.401 176.917 181.06C178.338 178.761 177.824 177.887 173.412 177.732C160.511 177.276 150.491 178.841 147.518 179.841C143.516 181.187 141.253 183.576 140.867 185.407C139.612 191.37 142.439 198.609 143.876 202.014C144.266 202.94 145.329 203.634 146.254 204.088C149.933 205.895 160.996 197.444 167.014 191.69C168.331 190.431 167.89 188.206 167.376 186.691C165.827 182.123 157.139 186.027 155.539 187.258C151.043 190.719 151.17 197.42 150.656 197.756C145.439 201.172 158.503 184.83 163.681 181.335C167.954 178.452 170.51 174.534 175.225 169.638C178.565 166.17 183.701 164.326 189.979 163.18C207.632 159.959 217.318 165.663 226.537 170.403C230.719 172.553 234.233 182.401 236.213 190.971C236.32 198.799 235.566 204.434 234.368 205.841C233.936 206.667 233.864 207.718 233.591 209.162" stroke="#DDFF00" stroke-width="20" stroke-linecap="round"/>
<path d="M236 194.5C244.695 194.5 252.128 197.522 258.27 203.558L258.839 204.107C264.626 209.854 267.5 217.57 267.5 227.196C267.5 236.626 264.432 244.512 258.285 250.819L258.277 250.827C252.134 256.868 244.699 259.893 236 259.893C227.301 259.893 219.866 256.868 213.723 250.827L213.715 250.819C207.568 244.512 204.5 236.626 204.5 227.196C204.5 217.259 207.563 209.359 213.73 203.558C219.872 197.522 227.305 194.5 236 194.5Z" fill="#030404" stroke="#DDFF00"/>
<path d="M146 194.5C154.695 194.5 162.128 197.522 168.27 203.558L168.839 204.107C174.626 209.854 177.5 217.57 177.5 227.196C177.5 236.626 174.432 244.512 168.285 250.819L168.277 250.827C162.134 256.868 154.699 259.893 146 259.893C137.301 259.893 129.866 256.868 123.723 250.827L123.715 250.819C117.568 244.512 114.5 236.626 114.5 227.196C114.5 217.259 117.563 209.359 123.73 203.558C129.872 197.522 137.305 194.5 146 194.5Z" fill="#030404" stroke="#DDFF00"/>
</svg>
