<svg width="185" height="306" viewBox="0 0 185 306" fill="none" xmlns="http://www.w3.org/2000/svg">
<path d="M51.3872 266.31L31.1566 262.758C35.5577 262.898 39.1069 261.505 41.8043 258.58C44.5017 255.517 46.5603 251.339 47.98 246.047C49.5416 240.755 50.6774 234.766 51.3872 228.081C52.0971 221.257 52.6649 214.225 53.0909 206.983L54.7945 169.59H142.319V270.905H121.875V187.138H72.8956L71.8308 208.445C71.5469 215.408 71.05 222.163 70.3401 228.708C69.7723 235.114 68.7785 241.033 67.3588 246.464C66.0811 251.896 64.1645 256.352 61.609 259.834C59.0536 263.315 55.6463 265.474 51.3872 266.31ZM26.6846 306V262.758H159.568V306H140.402V280.306H46.0634V306H26.6846Z" fill="#DDFF01"/>
<path d="M95.7586 190.482C82.4109 190.482 70.5649 187.62 60.2205 181.895C49.8761 176.171 41.7007 168.321 35.6942 158.344C29.6878 148.204 26.6846 136.755 26.6846 123.998C26.6846 111.077 29.6878 99.6285 35.6942 89.6518C41.7007 79.6751 49.8761 71.9063 60.2205 66.3455C70.5649 60.6212 82.4109 57.759 95.7586 57.759C108.939 57.759 120.702 60.6212 131.046 66.3455C141.558 71.9063 149.733 79.6751 155.573 89.6518C161.579 99.4649 164.582 110.914 164.582 123.998C164.582 136.918 161.579 148.367 155.573 158.344C149.733 168.321 141.558 176.171 131.046 181.895C120.702 187.62 108.939 190.482 95.7586 190.482ZM95.7586 169.874C104.268 169.874 111.859 167.993 118.533 164.232C125.374 160.47 130.713 155.155 134.55 148.285C138.388 141.253 140.306 133.157 140.306 123.998C140.306 114.675 138.388 106.661 134.55 99.9556C130.713 93.0864 125.374 87.7709 118.533 84.0092C111.859 80.2475 104.268 78.3667 95.7586 78.3667C87.2495 78.3667 79.658 80.2475 72.9842 84.0092C66.3104 87.7709 60.9713 93.0864 56.967 99.9556C52.9627 106.661 50.9606 114.675 50.9606 123.998C50.9606 133.157 52.9627 141.253 56.967 148.285C60.9713 155.155 66.3104 160.47 72.9842 164.232C79.658 167.993 87.2495 169.874 95.7586 169.874Z" fill="#DDFF01"/>
<path d="M133.242 149.928C125.965 149.928 119.758 147.487 114.621 142.606C109.484 137.513 106.916 131.146 106.916 123.506C106.916 115.442 109.484 109.075 114.621 104.406C119.758 99.5249 125.965 97.0844 133.242 97.0844C140.519 97.0844 146.726 99.5249 151.863 104.406C156.999 109.075 159.568 115.442 159.568 123.506C159.568 131.146 156.999 137.513 151.863 142.606C146.726 147.487 140.519 149.928 133.242 149.928Z" fill="#030404"/>
<path d="M61.7859 149.928C54.5088 149.928 48.3019 147.487 43.1651 142.606C38.0283 137.513 35.46 131.146 35.46 123.506C35.46 115.442 38.0283 109.075 43.1651 104.406C48.3019 99.5249 54.5088 97.0844 61.7859 97.0844C69.063 97.0844 75.2699 99.5249 80.4067 104.406C85.5434 109.075 88.1118 115.442 88.1118 123.506C88.1118 131.146 85.5434 137.513 80.4067 142.606C75.2699 147.487 69.063 149.928 61.7859 149.928Z" fill="#030404"/>
<line y1="-7.5" x2="71.6967" y2="-7.5" transform="matrix(-0.463305 0.886199 -0.893567 -0.44893 141.387 0)" stroke="#DDFF01" stroke-width="15"/>
<line y1="-7.5" x2="70.9605" y2="-7.5" transform="matrix(0.445277 0.895393 -0.902263 0.431187 32.9526 7.37354)" stroke="#DDFF01" stroke-width="15"/>
<path d="M179 271.593L136.229 161.127" stroke="#DDFF01" stroke-width="12"/>
<path d="M6 272.819L51.9733 169.493" stroke="#DDFF01" stroke-width="12"/>
</svg>
