<svg width="154" height="252" viewBox="0 0 154 252" fill="none" xmlns="http://www.w3.org/2000/svg">
<path d="M43.2544 219.443L26.649 216.531C30.2614 216.645 33.1746 215.502 35.3887 213.104C37.6028 210.59 39.2924 207.163 40.4577 202.823C41.7396 198.482 42.6718 193.57 43.2544 188.086C43.8371 182.489 44.3032 176.72 44.6528 170.78L46.0512 140.108H117.892V223.213H101.111V154.502H60.9087L60.0347 171.98C59.8017 177.691 59.3938 183.231 58.8112 188.6C58.345 193.855 57.5293 198.71 56.364 203.165C55.3153 207.62 53.7421 211.276 51.6446 214.132C49.547 216.987 46.7503 218.758 43.2544 219.443ZM22.9783 252V216.531H132.05V252H116.319V230.924H38.8846V252H22.9783Z" fill="#DDFF01"/>
<path d="M79.6749 157.245C68.719 157.245 58.9957 154.897 50.5049 150.202C42.0141 145.506 35.3036 139.067 30.3735 130.883C25.4433 122.566 22.9783 113.175 22.9783 102.711C22.9783 92.1124 25.4433 82.7215 30.3735 74.538C35.3036 66.3544 42.0141 59.982 50.5049 55.4207C58.9957 50.7253 68.719 48.3776 79.6749 48.3776C90.4938 48.3776 100.149 50.7253 108.639 55.4207C117.267 59.982 123.978 66.3544 128.771 74.538C133.701 82.5873 136.166 91.9782 136.166 102.711C136.166 113.309 133.701 122.7 128.771 130.883C123.978 139.067 117.267 145.506 108.639 150.202C100.149 154.897 90.4938 157.245 79.6749 157.245ZM79.6749 140.341C86.6592 140.341 92.8904 138.799 98.3683 135.713C103.983 132.627 108.366 128.267 111.515 122.633C114.665 116.864 116.24 110.223 116.24 102.711C116.24 95.0638 114.665 88.4902 111.515 82.9898C108.366 77.3552 103.983 72.9952 98.3683 69.9096C92.8904 66.824 86.6592 65.2812 79.6749 65.2812C72.6905 65.2812 66.4593 66.824 60.9814 69.9096C55.5035 72.9952 51.1211 77.3552 47.8344 82.9898C44.5476 88.4902 42.9042 95.0638 42.9042 102.711C42.9042 110.223 44.5476 116.864 47.8344 122.633C51.1211 128.267 55.5035 132.627 60.9814 135.713C66.4593 138.799 72.6905 140.341 79.6749 140.341Z" fill="#DDFF01"/>
<path d="M110.441 123.98C104.468 123.98 99.3735 121.978 95.1572 117.974C90.9409 113.796 88.8328 108.574 88.8328 102.307C88.8328 95.6923 90.9409 90.4699 95.1572 86.6402C99.3735 82.6364 104.468 80.6345 110.441 80.6345C116.414 80.6345 121.509 82.6364 125.725 86.6402C129.942 90.4699 132.05 95.6923 132.05 102.307C132.05 108.574 129.942 113.796 125.725 117.974C121.509 121.978 116.414 123.98 110.441 123.98Z" fill="#030404"/>
<path d="M51.7895 123.98C45.8164 123.98 40.7217 121.978 36.5054 117.974C32.2891 113.796 30.1809 108.574 30.1809 102.307C30.1809 95.6923 32.2891 90.4699 36.5054 86.6402C40.7217 82.6364 45.8164 80.6345 51.7895 80.6345C57.7626 80.6345 62.8573 82.6364 67.0736 86.6402C71.2899 90.4699 73.398 95.6923 73.398 102.307C73.398 108.574 71.2899 113.796 67.0736 117.974C62.8573 121.978 57.7626 123.98 51.7895 123.98Z" fill="#030404"/>
<line y1="-7.5" x2="58.8185" y2="-7.5" transform="matrix(-0.463548 0.886072 -0.893687 -0.448691 117.127 1)" stroke="#DDFF01" stroke-width="15"/>
<line y1="-7.5" x2="58.2139" y2="-7.5" transform="matrix(0.445516 0.895274 -0.902375 0.430952 28.123 7.04822)" stroke="#DDFF01" stroke-width="15"/>
<path d="M148 223.777L112.893 133.166" stroke="#DDFF01" stroke-width="12"/>
<path d="M6 224.783L43.7353 140.029" stroke="#DDFF01" stroke-width="12"/>
</svg>
