<svg width="124" height="198" viewBox="0 0 124 198" fill="none" xmlns="http://www.w3.org/2000/svg">
<path d="M35.3836 172.577L22.2863 170.303C25.1355 170.392 27.4333 169.5 29.1796 167.627C30.9259 165.664 32.2586 162.988 33.1777 159.598C34.1887 156.209 34.924 152.373 35.3836 148.091C35.8431 143.72 36.2108 139.216 36.4865 134.577L37.5894 110.626H94.2524V175.521H81.0173V121.866H49.3081L48.6187 135.514C48.4349 139.974 48.1132 144.3 47.6537 148.493C47.286 152.596 46.6427 156.387 45.7235 159.866C44.8963 163.345 43.6556 166.199 42.0012 168.429C40.3468 170.66 38.1409 172.042 35.3836 172.577ZM19.3911 198V170.303H105.42V198H93.0116V181.542H31.9369V198H19.3911Z" fill="#DDFF01"/>
<path d="M64.1095 124.008C55.4683 124.008 47.7992 122.175 41.1022 118.508C34.4053 114.842 29.1125 109.813 25.224 103.423C21.3354 96.9278 19.3911 89.5946 19.3911 81.4234C19.3911 73.1475 21.3354 65.8143 25.224 59.424C29.1125 53.0337 34.4053 48.0576 41.1022 44.4958C47.7992 40.8293 55.4683 38.996 64.1095 38.996C72.6428 38.996 80.2579 40.8293 86.9548 44.4958C93.7598 48.0576 99.0526 53.0337 102.833 59.424C106.722 65.7096 108.666 73.0427 108.666 81.4234C108.666 89.6994 106.722 97.0325 102.833 103.423C99.0526 109.813 93.7598 114.842 86.9548 118.508C80.2579 122.175 72.6428 124.008 64.1095 124.008ZM64.1095 110.808C69.6183 110.808 74.533 109.604 78.8537 107.194C83.2823 104.785 86.7388 101.38 89.2232 96.9802C91.7075 92.4755 92.9497 87.2899 92.9497 81.4234C92.9497 75.4522 91.7075 70.319 89.2232 66.0238C86.7388 61.6239 83.2823 58.2193 78.8537 55.8098C74.533 53.4004 69.6183 52.1956 64.1095 52.1956C58.6007 52.1956 53.686 53.4004 49.3654 55.8098C45.0448 58.2193 41.5883 61.6239 38.9959 66.0238C36.4036 70.319 35.1074 75.4522 35.1074 81.4234C35.1074 87.2899 36.4036 92.4755 38.9959 96.9802C41.5883 101.38 45.0448 104.785 49.3654 107.194C53.686 109.604 58.6007 110.808 64.1095 110.808Z" fill="#DDFF01"/>
<path d="M88.3764 98.0321C83.6652 98.0321 79.6468 96.4688 76.3213 93.3424C72.9958 90.08 71.333 86.002 71.333 81.1084C71.333 75.9429 72.9958 71.8649 76.3213 68.8744C79.6468 65.7479 83.6652 64.1847 88.3764 64.1847C93.0876 64.1847 97.1059 65.7479 100.431 68.8744C103.757 71.8649 105.42 75.9429 105.42 81.1084C105.42 86.002 103.757 90.08 100.431 93.3424C97.1059 96.4688 93.0876 98.0321 88.3764 98.0321Z" fill="#030404"/>
<path d="M42.1156 98.0321C37.4045 98.0321 33.3861 96.4688 30.0606 93.3424C26.735 90.08 25.0723 86.002 25.0723 81.1084C25.0723 75.9429 26.735 71.8649 30.0606 68.8744C33.3861 65.7479 37.4045 64.1847 42.1156 64.1847C46.8268 64.1847 50.8452 65.7479 54.1707 68.8744C57.4963 71.8649 59.159 75.9429 59.159 81.1084C59.159 86.002 57.4963 90.08 54.1707 93.3424C50.8452 96.4688 46.8268 98.0321 42.1156 98.0321Z" fill="#030404"/>
<line y1="-7.5" x2="46.0297" y2="-7.5" transform="matrix(-0.467198 0.884153 -0.895476 -0.445111 93.6494 2)" stroke="#DDFF01" stroke-width="15"/>
<line y1="-7.5" x2="45.549" y2="-7.5" transform="matrix(0.449097 0.893483 -0.90404 0.427447 23.4492 6.7229)" stroke="#DDFF01" stroke-width="15"/>
<path d="M118 175.962L90.3101 105.205" stroke="#DDFF01" stroke-width="12"/>
<path d="M6 176.747L35.7631 110.564" stroke="#DDFF01" stroke-width="12"/>
</svg>
