<svg width="253" height="385" viewBox="0 0 253 385" fill="none" xmlns="http://www.w3.org/2000/svg">
<path d="M85.0249 336.064L52.996 332.002C57.4393 332.125 61.0804 330.587 63.9192 327.387C66.8814 324.187 69.2265 319.694 70.9544 313.91C72.6824 308.002 73.9166 301.11 74.6572 293.233C75.5212 285.356 76.1383 276.802 76.5086 267.571L77.9897 227.141H177.594V343.079H147.972V251.51H103.539L102.983 270.341C102.613 278.341 102.058 285.91 101.317 293.048C100.7 300.187 99.7126 306.71 98.3549 312.618C96.9972 318.402 95.2076 323.325 92.9859 327.387C90.8877 331.448 88.234 334.341 85.0249 336.064ZM48.7378 383.141L48.9229 332.002H195.738V383.141H167.967V356.371H76.5086V383.141H48.7378Z" fill="#FF00BF"/>
<path d="M195.811 332.028H177.65V227.065H77.9481L76.4659 267.535C76.0952 276.774 75.4775 285.336 74.6127 293.221C73.8714 301.106 72.6359 308.005 70.9063 313.918C69.1767 319.708 66.8295 324.205 63.8645 327.408L63.5958 327.704C61.0009 330.485 57.7591 331.925 53.8711 332.028H48.8535L48.668 383.217H76.4659V356.421H168.013V383.217H195.811V332.028ZM147.999 251.458V332.028H89.9196C91.0366 330.707 92.0503 329.167 92.9591 327.408C95.1829 323.343 96.9742 318.415 98.3332 312.624C99.6921 306.711 100.681 300.182 101.298 293.037C102.04 285.891 102.596 278.314 102.966 270.307L103.523 251.458H147.999ZM103.893 270.334V270.342L103.892 270.349C103.52 278.372 102.964 285.967 102.221 293.132L102.22 293.131C101.599 300.306 100.606 306.873 99.2371 312.831L99.2353 312.836C97.8646 318.676 96.0506 323.679 93.7825 327.83L93.7834 327.831C93.1725 329.014 92.5098 330.104 91.8008 331.104H147.073V252.382H104.422L103.893 270.334ZM178.577 331.104H196.738V384.141H167.087V357.345H77.3925V384.141H47.7378L47.9296 331.104H53.8783C57.6405 330.997 60.7161 329.563 63.1705 326.796L63.1832 326.782C66.0219 323.715 68.313 319.361 70.0168 313.659C71.726 307.816 72.9525 300.977 73.6897 293.135L73.6915 293.121C74.5537 285.26 75.1703 276.72 75.5402 267.498L77.0549 226.141H178.577V331.104Z" fill="#FF00BF"/>
<path d="M123.469 241.141C110.683 241.141 98.8213 239.065 87.884 234.913C77.1007 230.761 67.7039 224.917 59.6934 217.382C51.837 209.847 45.6751 201.005 41.2078 190.856C36.8945 180.707 34.7378 169.635 34.7378 157.641C34.7378 145.646 36.8945 134.574 41.2078 124.425C45.6751 114.276 51.914 105.434 59.9245 97.8989C67.9349 90.3639 77.3318 84.5205 88.1151 80.3685C98.8984 76.2166 110.606 74.1406 123.238 74.1406C136.024 74.1406 147.731 76.2166 158.361 80.3685C169.144 84.5205 178.464 90.3639 186.32 97.8989C194.33 105.434 200.569 114.276 205.037 124.425C209.504 134.421 211.738 145.492 211.738 157.641C211.738 169.635 209.504 180.784 205.037 191.087C200.569 201.236 194.33 210.078 186.32 217.613C178.464 224.994 169.144 230.761 158.361 234.913C147.731 239.065 136.101 241.141 123.469 241.141ZM123.238 209.309C130.478 209.309 137.102 208.079 143.11 205.619C149.272 203.158 154.663 199.621 159.285 195.008C163.906 190.395 167.449 184.936 169.914 178.631C172.533 172.326 173.842 165.329 173.842 157.641C173.842 149.952 172.533 142.955 169.914 136.65C167.449 130.346 163.906 124.886 159.285 120.273C154.817 115.66 149.503 112.123 143.341 109.663C137.179 107.202 130.478 105.972 123.238 105.972C115.998 105.972 109.297 107.202 103.135 109.663C97.1268 112.123 91.8122 115.66 87.1908 120.273C82.5694 124.886 78.9493 130.346 76.3305 136.65C73.8657 142.955 72.6334 149.952 72.6334 157.641C72.6334 165.176 73.8657 172.172 76.3305 178.631C78.9493 184.936 82.4924 190.395 86.9597 195.008C91.5811 199.621 96.9728 203.158 103.135 205.619C109.297 208.079 115.998 209.309 123.238 209.309Z" fill="#FF00BF"/>
<path d="M33.7378 157.641C33.7378 145.522 35.9169 134.316 40.2864 124.034L40.2909 124.023L41.1383 124.395L40.7399 125.35C36.6885 135.247 34.6629 146.01 34.6629 157.641L34.6692 158.763C34.7999 170.338 36.9562 181.046 41.1383 190.887C45.6095 201.045 51.7766 209.895 59.6396 217.437C67.6568 224.979 77.0617 230.828 87.8541 234.984C98.8007 239.139 110.672 241.217 123.469 241.217C136.112 241.217 147.752 239.139 158.39 234.984C168.845 230.958 177.926 225.415 185.632 218.356L186.373 217.668C194.14 210.362 200.243 201.828 204.681 192.066L205.106 191.117C209.437 181.127 211.671 170.343 211.806 158.763L211.813 157.641C211.813 145.481 209.577 134.399 205.106 124.395C200.775 114.554 194.779 105.94 187.12 98.5548L186.373 97.8442C178.756 90.5379 169.764 84.8202 159.398 80.6918L158.39 80.2977C148.085 76.2719 136.766 74.1963 124.435 74.0704L123.238 74.0641C110.595 74.0641 98.8778 76.142 88.0853 80.2977L87.0781 80.6918C76.7067 84.8202 67.6377 90.5378 59.8709 97.8442L59.1247 98.5548C51.4652 105.94 45.4698 114.554 41.1383 124.395L40.2918 124.023C44.8124 113.752 51.1284 104.8 59.2367 97.1723C67.3454 89.5444 76.8536 83.6331 87.752 79.4365C98.6601 75.2362 110.492 73.1406 123.238 73.1406C136.136 73.1406 147.969 75.235 158.727 79.4374H158.726C169.622 83.6333 179.053 89.544 187.008 97.1723L187.763 97.8911C195.509 105.361 201.574 114.073 205.953 124.023H205.952C210.481 134.157 212.738 145.368 212.738 157.641C212.738 169.764 210.48 181.048 205.955 191.484L205.953 191.489C201.433 201.76 195.116 210.712 187.008 218.34V218.341C179.052 225.815 169.621 231.647 158.726 235.843L158.727 235.844C147.971 240.046 136.215 242.141 123.469 242.141C110.57 242.141 98.5862 240.046 87.5252 235.847L87.5207 235.845C76.6224 231.648 67.1141 225.737 59.0054 218.109L58.9991 218.103C51.0471 210.475 44.8107 201.525 40.2918 191.258L40.2864 191.247C35.9169 180.965 33.7378 169.759 33.7378 157.641ZM172.96 157.641C172.96 150.051 171.668 143.17 169.099 136.985L169.092 136.967C166.67 130.77 163.193 125.416 158.661 120.892L158.65 120.881C154.273 116.36 149.064 112.892 143.015 110.476C136.966 108.061 130.377 106.848 123.238 106.848C116.098 106.848 109.509 108.061 103.461 110.476L103.46 110.476C97.5646 112.891 92.3514 116.362 87.8143 120.892C83.2788 125.42 79.7221 130.781 77.1454 136.985C74.7303 143.17 73.5156 150.051 73.5156 157.641C73.5156 165.076 74.731 171.964 77.1517 178.311C79.7299 184.514 83.2106 189.873 87.5912 194.397C92.1246 198.921 97.412 202.389 103.461 204.805C109.509 207.22 116.098 208.433 123.238 208.433V209.356L122.56 209.353C115.798 209.281 109.511 208.126 103.698 205.89L103.118 205.662C96.9505 203.2 91.5543 199.66 86.929 195.042C82.4579 190.425 78.9118 184.961 76.2908 178.65C73.901 172.388 72.6688 165.62 72.5941 158.346L72.5905 157.641C72.5905 149.945 73.8239 142.942 76.2908 136.631C78.8298 130.518 82.3094 125.199 86.7294 120.675L87.1603 120.239C91.7856 115.621 97.1047 112.081 103.118 109.619C109.285 107.156 115.991 105.925 123.238 105.925L123.915 105.928C130.903 106.003 137.384 107.233 143.358 109.619C149.525 112.081 154.844 115.621 159.315 120.239C163.941 124.856 167.487 130.32 169.954 136.631C172.575 142.942 173.885 149.945 173.885 157.641L173.881 158.36C173.802 165.774 172.493 172.537 169.954 178.65L169.72 179.239C167.264 185.301 163.796 190.569 159.315 195.042L158.88 195.472C154.352 199.88 149.101 203.277 143.127 205.662C137.114 208.125 130.484 209.356 123.238 209.356V208.433C130.377 208.433 136.886 207.22 142.775 204.808L142.783 204.805C148.836 202.388 154.126 198.917 158.661 194.389C163.193 189.866 166.67 184.511 169.092 178.315L169.099 178.297C171.668 172.112 172.96 165.23 172.96 157.641Z" fill="#FF00BF"/>
<path d="M237.815 328.755L133.252 190.652L146.384 180.71L250.946 318.812L237.815 328.755Z" fill="#FF00BF"/>
<path d="M146.383 180.71L133.252 190.652L237.814 328.754L250.946 318.812L146.383 180.71ZM252.242 318.991L237.635 330.051L131.956 190.473L146.562 179.413L252.242 318.991Z" fill="#FF00BF"/>
<path d="M14.4271 330.605L118.989 192.503L105.858 182.561L1.29554 320.663L14.4271 330.605Z" fill="#FF00BF"/>
<path d="M105.858 182.561L118.99 192.503L14.4275 330.605L1.29618 320.663L105.858 182.561ZM-0.000108267 320.842L14.6067 331.902L120.286 192.324L105.679 181.264L-0.000108267 320.842Z" fill="#FF00BF"/>
<path d="M117.747 165.813L46.0205 8.13989L61.0129 1.31977L132.739 158.993L117.747 165.813Z" fill="#FF00BF"/>
<path d="M61.0131 1.31949L46.0208 8.13954L117.747 165.813L132.739 158.993L61.0131 1.31949ZM133.965 159.452L117.288 167.038L44.7954 7.68042L61.4722 0.094068L133.965 159.452Z" fill="#FF00BF"/>
<path d="M105.967 157.218L181.299 1.23584L196.131 8.39883L120.799 164.381L105.967 157.218Z" fill="#FF00BF"/>
<path d="M196.131 8.39856L181.299 1.23566L105.967 157.218L120.798 164.381L196.131 8.39856ZM121.229 165.617L104.731 157.649L180.868 0L197.366 7.96774L121.229 165.617Z" fill="#FF00BF"/>
<path d="M113.936 97.1571C123.436 95.427 131.163 96.0531 137.872 97.9243C144.315 99.7215 149.62 102.658 153.562 104.68C156.449 106.162 158.418 108.484 159.678 110.287C161.025 112.213 162.131 114.375 163.038 116.462C163.283 117.026 163.52 117.602 163.75 118.186C164.308 118.347 164.87 118.516 165.432 118.7C168.281 119.633 171.589 121.006 174.571 123.055C177.533 125.091 180.788 128.227 182.37 132.845C183.185 135.221 183.769 138.257 183.702 142.281C184.686 143.008 185.661 143.832 186.541 144.792L186.85 145.14L187.174 145.524C190.484 149.531 192.539 154.698 191.439 160.68C191.058 162.755 190.315 167.79 188.842 172.076C188.093 174.257 186.929 176.975 185.013 179.343C182.991 181.84 179.697 184.426 175.017 184.786C173.95 184.869 172.942 184.8 171.999 184.615C171.777 185.072 171.54 185.524 171.285 185.967C168.588 190.66 163.493 196.753 154.83 197.45C155.355 198.151 155.801 198.772 156.174 199.331C157.327 201.057 158.104 202.64 158.555 204.568L158.642 204.959L158.737 205.463C159.182 208.006 159.093 210.876 158.397 213.39C158.072 214.562 157.468 216.237 156.343 217.812C155.79 218.587 151.795 223.856 145.125 221.74C144.777 221.629 144.427 221.5 144.074 221.353C142.368 222 140.675 222.062 139.417 221.885C138.883 221.81 138.396 221.693 137.963 221.56C139.189 226.19 139.89 229.069 140.265 230.875C140.469 231.859 140.723 233.174 140.747 234.425C140.752 234.739 140.849 236.902 139.642 239.181C138.872 240.635 137.491 242.283 135.29 243.293C133.218 244.242 131.347 244.194 130.353 244.082C127.482 243.761 125.489 242.244 124.35 240.962C123.528 240.037 123.042 239.119 122.877 238.808C122.465 238.026 122.026 237.007 121.552 235.863C120.573 233.497 118.867 229.169 115.796 221.273C113.735 221.781 111.922 221.463 110.858 221.142C108.486 220.427 107.033 218.923 106.883 218.778C106.39 218.3 106.003 217.835 105.757 217.524C104.827 216.351 103.784 214.688 102.76 212.934C102.556 212.586 102.347 212.217 102.128 211.833C101.919 211.98 101.7 212.124 101.467 212.261C97.2119 214.769 93.2684 213.037 92.0046 212.325C90.6294 211.55 89.7365 210.598 89.3777 210.202C87.9988 208.678 86.8182 206.503 86.0783 205.091C84.2668 201.634 82.0434 196.639 80.1402 191.901C72.9349 173.963 70.5481 161.329 70.2249 155.634C70.1473 154.267 70.1926 152.946 70.3105 151.719C69.6604 151.356 68.9107 150.884 68.1605 150.282C67.1105 149.438 65.5236 147.92 64.5293 145.568C63.8081 143.862 62.5979 140.877 61.7483 137.412C60.9285 134.07 60.2361 129.479 61.2245 124.793L61.2957 124.477C62.0709 121.231 64.0652 118.748 65.9302 117.087C67.9961 115.248 70.5683 113.803 73.4549 112.834C76.5548 111.794 83 110.75 91.0941 110.434C92.2849 109.077 93.7793 107.379 95.3247 105.778C100.488 100.428 107.655 98.3008 113.936 97.1571ZM137.775 138.012C137.815 138.057 137.855 138.101 137.894 138.146C138.274 138.099 138.659 138.06 139.048 138.027C138.561 137.788 138.093 137.565 137.643 137.358C137.686 137.573 137.731 137.792 137.775 138.012Z" fill="#FF00BF"/>
<path d="M161.485 189.083C154.59 189.083 148.709 186.637 143.841 181.745C138.974 176.639 136.54 170.258 136.54 162.6C136.54 154.516 138.974 148.134 143.841 143.455C148.709 138.562 154.59 136.116 161.485 136.116C168.381 136.116 174.262 138.562 179.13 143.455C183.997 148.134 186.431 154.516 186.431 162.6C186.431 170.258 183.997 176.639 179.13 181.745C174.262 186.637 168.381 189.083 161.485 189.083Z" fill="#030404"/>
<path d="M82.1592 189.083C75.1258 189.083 69.1267 186.637 64.162 181.745C59.1972 176.639 56.7148 170.258 56.7148 162.6C56.7148 154.516 59.1972 148.134 64.162 143.455C69.1267 138.562 75.1258 136.116 82.1592 136.116C89.1926 136.116 95.1917 138.562 100.156 143.455C105.121 148.134 107.604 154.516 107.604 162.6C107.604 170.258 105.121 176.639 100.156 181.745C95.1917 186.637 89.1926 189.083 82.1592 189.083Z" fill="#030404"/>
</svg>
