<svg width="273" height="384" viewBox="0 0 273 384" fill="none" xmlns="http://www.w3.org/2000/svg">
<path d="M166.793 335.064L198.822 331.002C194.379 331.125 190.738 329.587 187.899 326.387C184.937 323.187 182.592 318.694 180.864 312.91C179.136 307.002 177.902 300.11 177.161 292.233C176.297 284.356 175.68 275.802 175.31 266.571L173.829 226.141H74.2241V342.079H103.846V250.51H148.28L148.835 269.341C149.205 277.341 149.761 284.91 150.501 292.048C151.118 299.187 152.106 305.71 153.463 311.618C154.821 317.402 156.611 322.325 158.832 326.387C160.931 330.448 163.584 333.341 166.793 335.064ZM203.081 382.141L202.895 331.002H56.0806V382.141H83.8513V355.371H175.31V382.141H203.081Z" fill="#FF00BF"/>
<path d="M56.0072 331.028H74.1681V226.065H173.87L175.352 266.535C175.723 275.774 176.341 284.336 177.206 292.221C177.947 300.106 179.182 307.005 180.912 312.918C182.642 318.708 184.989 323.205 187.954 326.408L188.223 326.704C190.817 329.485 194.059 330.925 197.947 331.028H202.965L203.15 382.217H175.352V355.421H83.805V382.217H56.0072V331.028ZM103.819 250.458V331.028H161.899C160.782 329.707 159.768 328.167 158.859 326.408C156.635 322.343 154.844 317.415 153.485 311.624C152.126 305.711 151.138 299.182 150.52 292.037C149.779 284.891 149.223 277.314 148.852 269.307L148.296 250.458H103.819ZM147.926 269.334V269.342L147.927 269.349C148.298 277.372 148.855 284.967 149.598 292.132L149.599 292.131C150.22 299.306 151.212 305.873 152.581 311.831L152.583 311.836C153.954 317.676 155.768 322.679 158.036 326.83L158.035 326.831C158.646 328.014 159.309 329.104 160.018 330.104H104.746V251.382H147.396L147.926 269.334ZM73.2415 330.104H55.0806V383.141H84.7316V356.345H174.426V383.141H204.081L203.889 330.104H197.94C194.178 329.997 191.102 328.563 188.648 325.796L188.635 325.782C185.796 322.715 183.505 318.361 181.802 312.659C180.092 306.816 178.866 299.977 178.129 292.135L178.127 292.121C177.265 284.26 176.648 275.72 176.278 266.498L174.763 225.141H73.2415V330.104Z" fill="#FF00BF"/>
<path d="M128.349 241.141C141.135 241.141 152.997 239.065 163.934 234.913C174.718 230.761 184.115 224.917 192.125 217.382C199.981 209.847 206.143 201.005 210.611 190.856C214.924 180.707 217.081 169.635 217.081 157.641C217.081 145.646 214.924 134.574 210.611 124.425C206.143 114.276 199.904 105.434 191.894 97.8989C183.883 90.3639 174.487 84.5205 163.703 80.3685C152.92 76.2166 141.212 74.1406 128.581 74.1406C115.795 74.1406 104.087 76.2166 93.4579 80.3685C82.6746 84.5205 73.3547 90.3639 65.4983 97.8989C57.4879 105.434 51.249 114.276 46.7816 124.425C42.3142 134.421 40.0806 145.492 40.0806 157.641C40.0806 169.635 42.3142 180.784 46.7816 191.087C51.249 201.236 57.4879 210.078 65.4983 217.613C73.3547 224.994 82.6746 230.761 93.4579 234.913C104.087 239.065 115.718 241.141 128.349 241.141ZM128.581 209.309C121.34 209.309 114.716 208.079 108.709 205.619C102.547 203.158 97.155 199.621 92.5336 195.008C87.9122 190.395 84.3691 184.936 81.9043 178.631C79.2855 172.326 77.9761 165.329 77.9761 157.641C77.9761 149.952 79.2855 142.955 81.9043 136.65C84.3691 130.346 87.9122 124.886 92.5336 120.273C97.0009 115.66 102.316 112.123 108.477 109.663C114.639 107.202 121.34 105.972 128.581 105.972C135.821 105.972 142.522 107.202 148.684 109.663C154.692 112.123 160.006 115.66 164.628 120.273C169.249 124.886 172.869 130.346 175.488 136.65C177.953 142.955 179.185 149.952 179.185 157.641C179.185 165.176 177.953 172.172 175.488 178.631C172.869 184.936 169.326 190.395 164.859 195.008C160.237 199.621 154.846 203.158 148.684 205.619C142.522 208.079 135.821 209.309 128.581 209.309Z" fill="#FF00BF"/>
<path d="M218.081 157.641C218.081 145.522 215.901 134.316 211.532 124.034L211.527 124.023L210.68 124.395L211.078 125.35C215.13 135.247 217.156 146.01 217.156 157.641L217.149 158.763C217.018 170.338 214.862 181.046 210.68 190.887C206.209 201.045 200.042 209.895 192.179 217.437C184.162 224.979 174.757 230.828 163.964 234.984C153.018 239.139 141.146 241.217 128.349 241.217C115.707 241.217 104.066 239.139 93.4281 234.984C82.9731 230.958 73.8925 225.415 66.1866 218.356L65.4449 217.668C57.6783 210.362 51.5757 201.828 47.1369 192.066L46.7123 191.117C42.3809 181.127 40.1473 170.343 40.0119 158.763L40.0056 157.641C40.0056 145.481 42.2412 134.399 46.7123 124.395C51.0438 114.554 57.0393 105.94 64.6987 98.5548L65.4449 97.8442C73.0623 90.5379 82.0542 84.8202 92.4208 80.6918L93.4281 80.2977C103.734 76.2719 115.052 74.1963 127.384 74.0704L128.581 74.0641C141.223 74.0641 152.941 76.142 163.733 80.2977L164.74 80.6918C175.112 84.8202 184.181 90.5378 191.947 97.8442L192.694 98.5548C200.353 105.94 206.349 114.554 210.68 124.395L211.527 124.023C207.006 113.752 200.69 104.8 192.582 97.1723C184.473 89.5444 174.965 83.6331 164.066 79.4365C153.158 75.2362 141.326 73.1406 128.581 73.1406C115.682 73.1406 103.849 75.235 93.0911 79.4374H93.092C82.1963 83.6333 72.7656 89.544 64.8107 97.1723L64.0555 97.8911C56.3091 105.361 50.2443 114.073 45.865 124.023H45.8659C41.3376 134.157 39.0806 145.368 39.0806 157.641C39.0806 169.764 41.3384 181.048 45.8632 191.484L45.865 191.489C50.3856 201.76 56.7023 210.712 64.8107 218.34V218.341C72.7661 225.815 82.1975 231.647 93.092 235.843L93.0911 235.844C103.848 240.046 115.604 242.141 128.349 242.141C141.248 242.141 153.232 240.046 164.293 235.847L164.298 235.845C175.196 231.648 184.704 225.737 192.813 218.109L192.819 218.103C200.771 210.475 207.008 201.525 211.527 191.258L211.532 191.247C215.901 180.965 218.081 169.759 218.081 157.641ZM78.8583 157.641C78.8583 150.051 80.1505 143.17 82.7194 136.985L82.7266 136.967C85.1487 130.77 88.6257 125.416 93.1571 120.892L93.1679 120.881C97.5453 116.36 102.754 112.892 108.804 110.476C114.852 108.061 121.441 106.848 128.581 106.848C135.72 106.848 142.309 108.061 148.357 110.476L148.358 110.476C154.254 112.891 159.467 116.362 164.004 120.892C168.54 125.42 172.096 130.781 174.673 136.985C177.088 143.17 178.303 150.051 178.303 157.641C178.303 165.076 177.087 171.964 174.667 178.311C172.088 184.514 168.608 189.873 164.227 194.397C159.694 198.921 154.406 202.389 148.357 204.805C142.309 207.22 135.72 208.433 128.581 208.433V209.356L129.258 209.353C136.02 209.281 142.307 208.126 148.121 205.89L148.701 205.662C154.868 203.2 160.264 199.66 164.889 195.042C169.36 190.425 172.907 184.961 175.528 178.65C177.917 172.388 179.15 165.62 179.224 158.346L179.228 157.641C179.228 149.945 177.994 142.942 175.528 136.631C172.989 130.518 169.509 125.199 165.089 120.675L164.658 120.239C160.033 115.621 154.714 112.081 148.701 109.619C142.534 107.156 135.827 105.925 128.581 105.925L127.903 105.928C120.916 106.003 114.435 107.233 108.46 109.619C102.293 112.081 96.9742 115.621 92.503 120.239C87.8777 124.856 84.3316 130.32 81.8648 136.631C79.2438 142.942 77.9333 149.945 77.9333 157.641L77.9369 158.36C78.0163 165.774 79.3257 172.537 81.8648 178.65L82.0988 179.239C84.5539 185.301 88.0222 190.569 92.503 195.042L92.9385 195.472C97.466 199.88 102.717 203.277 108.692 205.662C114.705 208.125 121.334 209.356 128.581 209.356V208.433C121.441 208.433 114.932 207.22 109.043 204.808L109.035 204.805C102.982 202.388 97.6924 198.917 93.1571 194.389C88.6257 189.866 85.1487 184.511 82.7266 178.315L82.7194 178.297C80.1505 172.112 78.8583 165.23 78.8583 157.641Z" fill="#FF00BF"/>
<path d="M117.582 197.49L218.686 277.944L271.441 211.649L258.76 201.795L214.625 257.257L220.994 256.664L128.961 183.191L117.582 197.49Z" fill="#FF00BF"/>
<path d="M272.744 211.494L258.606 200.506L217.242 252.486L128.814 181.893L116.285 197.637L218.833 279.241L272.744 211.494ZM117.582 197.49L128.961 183.191L217.388 253.784L258.76 201.794L271.441 211.65L218.686 277.944L117.582 197.49Z" fill="#FF00BF"/>
<path d="M14.3897 327.899L118.68 190.156L105.582 180.239L1.29235 317.982L14.3897 327.899Z" fill="#FF00BF"/>
<path d="M105.583 180.239L118.68 190.156L14.3901 327.899L1.29294 317.982L105.583 180.239ZM3.37245e-05 318.161L14.5688 329.192L119.973 189.977L105.404 178.946L3.37245e-05 318.161Z" fill="#FF00BF"/>
<path d="M134.145 165.382L205.685 8.1189L190.731 1.31653L119.192 158.579L134.145 165.382Z" fill="#FF00BF"/>
<path d="M190.732 1.31603L205.685 8.11832L134.145 165.381L119.192 158.579L190.732 1.31603ZM117.97 159.037L134.603 166.603L206.907 7.6604L190.274 0.093797L117.97 159.037Z" fill="#FF00BF"/>
<path d="M145.894 156.809L70.7583 1.23267L55.9652 8.37701L131.101 163.954L145.894 156.809Z" fill="#FF00BF"/>
<path d="M55.9654 8.3767L70.7583 1.23244L145.894 156.809L131.101 163.953L55.9654 8.3767ZM130.672 165.186L147.127 157.239L71.188 0L54.7329 7.947L130.672 165.186Z" fill="#FF00BF"/>
<path d="M137.883 96.1639C128.382 94.4222 120.655 95.0525 113.947 96.9364C107.504 98.7457 102.198 101.702 98.2564 103.738C95.3698 105.229 93.4007 107.567 92.1399 109.383C90.7936 111.321 89.687 113.499 88.7801 115.599C88.5351 116.167 88.2984 116.747 88.0679 117.335C87.5103 117.497 86.9481 117.668 86.3867 117.853C83.537 118.791 80.2291 120.174 77.2475 122.237C74.2858 124.287 71.0308 127.444 69.4479 132.093C68.6334 134.485 68.0497 137.542 68.1164 141.593C67.1324 142.325 66.1575 143.154 65.2777 144.121L64.9685 144.471L64.6439 144.858C61.3341 148.892 59.2794 154.093 60.3791 160.116C60.7606 162.205 61.5036 167.274 62.9762 171.59C63.7252 173.785 64.8895 176.522 66.8057 178.905C68.8271 181.419 72.1211 184.022 76.8013 184.385C77.8687 184.468 78.8761 184.399 79.8194 184.213C80.0417 184.673 80.2784 185.128 80.5334 185.574C83.2308 190.299 88.3257 196.433 96.9881 197.134C96.4632 197.84 96.0173 198.465 95.6439 199.029C94.4918 200.766 93.7143 202.36 93.2631 204.301L93.1766 204.694L93.081 205.202C92.6367 207.762 92.7252 210.651 93.4218 213.182C93.7468 214.362 94.3501 216.048 95.4754 217.635C96.0285 218.414 100.024 223.719 106.693 221.588C107.041 221.477 107.391 221.347 107.744 221.199C109.45 221.851 111.143 221.913 112.402 221.735C112.935 221.66 113.422 221.541 113.856 221.407C112.63 226.069 111.928 228.967 111.553 230.785C111.349 231.776 111.095 233.1 111.072 234.36C111.066 234.676 110.97 236.853 112.176 239.147C112.946 240.612 114.327 242.271 116.528 243.287C118.601 244.243 120.471 244.194 121.465 244.082C124.337 243.758 126.329 242.231 127.469 240.941C128.291 240.01 128.776 239.085 128.941 238.772C129.354 237.985 129.792 236.959 130.266 235.807C131.246 233.425 132.951 229.068 136.022 221.118C138.083 221.63 139.896 221.31 140.96 220.987C143.333 220.267 144.785 218.753 144.936 218.606C145.428 218.125 145.815 217.657 146.062 217.344C146.992 216.163 148.034 214.489 149.058 212.724C149.262 212.373 149.472 212.002 149.69 211.614C149.899 211.763 150.119 211.907 150.351 212.045C154.606 214.571 158.55 212.827 159.814 212.11C161.189 211.329 162.082 210.372 162.441 209.972C163.82 208.438 165 206.249 165.74 204.827C167.552 201.347 169.775 196.318 171.678 191.548C178.883 173.489 181.27 160.77 181.593 155.036C181.671 153.66 181.626 152.33 181.508 151.094C182.158 150.729 182.908 150.254 183.658 149.647C184.708 148.799 186.295 147.269 187.289 144.902C188.01 143.185 189.22 140.179 190.07 136.691C190.89 133.326 191.582 128.704 190.594 123.987L190.523 123.668C189.747 120.401 187.753 117.901 185.888 116.229C183.822 114.377 181.25 112.922 178.363 111.947C175.264 110.9 168.818 109.849 160.724 109.53C159.533 108.164 158.039 106.455 156.494 104.843C151.331 99.4574 144.164 97.3154 137.883 96.1639ZM114.043 137.295C114.004 137.34 113.963 137.385 113.924 137.43C113.544 137.383 113.159 137.343 112.77 137.31C113.258 137.07 113.726 136.845 114.176 136.636C114.132 136.853 114.087 137.073 114.043 137.295Z" fill="#FF00BF"/>
<path d="M87.2953 188.083C94.1908 188.083 100.072 185.685 104.94 180.888C109.807 175.883 112.241 169.627 112.241 162.119C112.241 154.194 109.807 147.937 104.94 143.349C100.072 138.553 94.1908 136.154 87.2953 136.154C80.3998 136.154 74.5183 138.553 69.6509 143.349C64.7835 147.937 62.3498 154.194 62.3498 162.119C62.3498 169.627 64.7835 175.883 69.6509 180.888C74.5183 185.685 80.3998 188.083 87.2953 188.083Z" fill="#030404"/>
<path d="M166.622 188.083C173.655 188.083 179.655 185.685 184.619 180.888C189.584 175.883 192.066 169.627 192.066 162.119C192.066 154.194 189.584 147.937 184.619 143.349C179.655 138.553 173.655 136.154 166.622 136.154C159.589 136.154 153.59 138.553 148.625 143.349C143.66 147.937 141.178 154.194 141.178 162.119C141.178 169.627 143.66 175.883 148.625 180.888C153.59 185.685 159.589 188.083 166.622 188.083Z" fill="#030404"/>
</svg>
