<svg width="273" height="384" viewBox="0 0 273 384" fill="none" xmlns="http://www.w3.org/2000/svg">
<path d="M105.951 335.064L73.9218 331.002C78.3651 331.125 82.0061 329.587 84.8449 326.387C87.8072 323.187 90.1522 318.694 91.8802 312.91C93.6082 307.002 94.8424 300.11 95.583 292.233C96.4469 284.356 97.0641 275.802 97.4344 266.571L98.9155 226.141H198.52V342.079H168.898V250.51H124.465L123.909 269.341C123.539 277.341 122.983 284.91 122.243 292.048C121.626 299.187 120.638 305.71 119.281 311.618C117.923 317.402 116.133 322.325 113.912 326.387C111.813 330.448 109.16 333.341 105.951 335.064ZM69.6636 382.141L69.8487 331.002H216.664V382.141H188.893V355.371H97.4344V382.141H69.6636Z" fill="#FF00BF"/>
<path d="M216.737 331.028H198.576V226.065H98.8738L97.3917 266.535C97.021 275.774 96.4033 284.336 95.5385 292.221C94.7972 300.106 93.5617 307.005 91.8321 312.918C90.1025 318.708 87.7553 323.205 84.7903 326.408L84.5216 326.704C81.9267 329.485 78.6849 330.925 74.7968 331.028H69.7793L69.5938 382.217H97.3917V355.421H188.939V382.217H216.737V331.028ZM168.925 250.458V331.028H110.845C111.962 329.707 112.976 328.167 113.885 326.408C116.109 322.343 117.9 317.415 119.259 311.624C120.618 305.711 121.607 299.182 122.224 292.037C122.966 284.891 123.521 277.314 123.892 269.307L124.448 250.458H168.925ZM124.819 269.334V269.342L124.818 269.349C124.446 277.372 123.89 284.967 123.146 292.132L123.145 292.131C122.525 299.306 121.532 305.873 120.163 311.831L120.161 311.836C118.79 317.676 116.976 322.679 114.708 326.83L114.709 326.831C114.098 328.014 113.436 329.104 112.727 330.104H167.998V251.382H125.348L124.819 269.334ZM199.503 330.104H217.664V383.141H188.013V356.345H98.3183V383.141H68.6636L68.8554 330.104H74.8041C78.5663 329.997 81.6419 328.563 84.0963 325.796L84.1089 325.782C86.9477 322.715 89.2388 318.361 90.9426 312.659C92.6518 306.816 93.8782 299.977 94.6155 292.135L94.6173 292.121C95.4795 284.26 96.096 275.72 96.466 266.498L97.9807 225.141H199.503V330.104Z" fill="#FF00BF"/>
<path d="M144.395 241.141C131.609 241.141 119.747 239.065 108.81 234.913C98.0265 230.761 88.6296 224.917 80.6192 217.382C72.7628 209.847 66.6009 201.005 62.1335 190.856C57.8202 180.707 55.6636 169.635 55.6636 157.641C55.6636 145.646 57.8202 134.574 62.1335 124.425C66.6009 114.276 72.8398 105.434 80.8503 97.8989C88.8607 90.3639 98.2576 84.5205 109.041 80.3685C119.824 76.2166 131.532 74.1406 144.164 74.1406C156.949 74.1406 168.657 76.2166 179.286 80.3685C190.07 84.5205 199.389 90.3639 207.246 97.8989C215.256 105.434 221.495 114.276 225.963 124.425C230.43 134.421 232.664 145.492 232.664 157.641C232.664 169.635 230.43 180.784 225.963 191.087C221.495 201.236 215.256 210.078 207.246 217.613C199.389 224.994 190.07 230.761 179.286 234.913C168.657 239.065 157.026 241.141 144.395 241.141ZM144.164 209.309C151.404 209.309 158.028 208.079 164.036 205.619C170.198 203.158 175.589 199.621 180.211 195.008C184.832 190.395 188.375 184.936 190.84 178.631C193.459 172.326 194.768 165.329 194.768 157.641C194.768 149.952 193.459 142.955 190.84 136.65C188.375 130.346 184.832 124.886 180.211 120.273C175.743 115.66 170.429 112.123 164.267 109.663C158.105 107.202 151.404 105.972 144.164 105.972C136.923 105.972 130.222 107.202 124.06 109.663C118.053 112.123 112.738 115.66 108.117 120.273C103.495 124.886 99.8751 130.346 97.2563 136.65C94.7915 142.955 93.5591 149.952 93.5591 157.641C93.5591 165.176 94.7915 172.172 97.2563 178.631C99.8751 184.936 103.418 190.395 107.886 195.008C112.507 199.621 117.899 203.158 124.06 205.619C130.222 208.079 136.923 209.309 144.164 209.309Z" fill="#FF00BF"/>
<path d="M54.6636 157.641C54.6636 145.522 56.8426 134.316 61.2122 124.034L61.2167 124.023L62.0641 124.395L61.6657 125.35C57.6143 135.247 55.5886 146.01 55.5886 157.641L55.595 158.763C55.7257 170.338 57.882 181.046 62.0641 190.887C66.5352 201.045 72.7023 209.895 80.5654 217.437C88.5826 224.979 97.9874 230.828 108.78 234.984C119.726 239.139 131.598 241.217 144.395 241.217C157.037 241.217 168.678 239.139 179.316 234.984C189.771 230.958 198.852 225.415 206.558 218.356L207.299 217.668C215.066 210.362 221.168 201.828 225.607 192.066L226.032 191.117C230.363 181.127 232.597 170.343 232.732 158.763L232.739 157.641C232.739 145.481 230.503 134.399 226.032 124.395C221.7 114.554 215.705 105.94 208.045 98.5548L207.299 97.8442C199.682 90.5379 190.69 84.8202 180.323 80.6918L179.316 80.2977C169.01 76.2719 157.692 74.1963 145.361 74.0704L144.164 74.0641C131.521 74.0641 119.804 76.142 109.011 80.2977L108.004 80.6918C97.6325 84.8202 88.5635 90.5378 80.7966 97.8442L80.0505 98.5548C72.391 105.94 66.3956 114.554 62.0641 124.395L61.2176 124.023C65.7382 113.752 72.0542 104.8 80.1625 97.1723C88.2712 89.5444 97.7794 83.6331 108.678 79.4365C119.586 75.2362 131.418 73.1406 144.164 73.1406C157.062 73.1406 168.895 75.235 179.653 79.4374H179.652C190.548 83.6333 199.979 89.544 207.933 97.1723L208.689 97.8911C216.435 105.361 222.5 114.073 226.879 124.023H226.878C231.407 134.157 233.664 145.368 233.664 157.641C233.664 169.764 231.406 181.048 226.881 191.484L226.879 191.489C222.359 201.76 216.042 210.712 207.933 218.34V218.341C199.978 225.815 190.547 231.647 179.652 235.843L179.653 235.844C168.897 240.046 157.14 242.141 144.395 242.141C131.496 242.141 119.512 240.046 108.451 235.847L108.447 235.845C97.5481 231.648 88.0399 225.737 79.9312 218.109L79.9249 218.103C71.9729 210.475 65.7365 201.525 61.2176 191.258L61.2122 191.247C56.8426 180.965 54.6636 169.759 54.6636 157.641ZM193.886 157.641C193.886 150.051 192.594 143.17 190.025 136.985L190.018 136.967C187.595 130.77 184.118 125.416 179.587 120.892L179.576 120.881C175.199 116.36 169.99 112.892 163.94 110.476C157.892 108.061 151.303 106.848 144.164 106.848C137.024 106.848 130.435 108.061 124.387 110.476L124.386 110.476C118.49 112.891 113.277 116.362 108.74 120.892C104.205 125.42 100.648 130.781 98.0711 136.985C95.6561 143.17 94.4414 150.051 94.4414 157.641C94.4414 165.076 95.6568 171.964 98.0775 178.311C100.656 184.514 104.136 189.873 108.517 194.397C113.05 198.921 118.338 202.389 124.387 204.805C130.435 207.22 137.024 208.433 144.164 208.433V209.356L143.486 209.353C136.724 209.281 130.437 208.126 124.623 205.89L124.043 205.662C117.876 203.2 112.48 199.66 107.855 195.042C103.384 190.425 99.8376 184.961 97.2165 178.65C94.8268 172.388 93.5946 165.62 93.5199 158.346L93.5163 157.641C93.5163 149.945 94.7497 142.942 97.2165 136.631C99.7556 130.518 103.235 125.199 107.655 120.675L108.086 120.239C112.711 115.621 118.031 112.081 124.043 109.619C130.211 107.156 136.917 105.925 144.164 105.925L144.841 105.928C151.828 106.003 158.309 107.233 164.284 109.619C170.451 112.081 175.77 115.621 180.241 120.239C184.866 124.856 188.413 130.32 190.879 136.631C193.5 142.942 194.811 149.945 194.811 157.641L194.807 158.36C194.728 165.774 193.418 172.537 190.879 178.65L190.645 179.239C188.19 185.301 184.722 190.569 180.241 195.042L179.806 195.472C175.278 199.88 170.027 203.277 164.052 205.662C158.04 208.125 151.41 209.356 144.164 209.356V208.433C151.303 208.433 157.812 207.22 163.701 204.808L163.709 204.805C169.762 202.388 175.052 198.917 179.587 194.389C184.118 189.866 187.595 184.511 190.018 178.315L190.025 178.297C192.594 172.112 193.886 165.23 193.886 157.641Z" fill="#FF00BF"/>
<path d="M155.162 197.49L54.0583 277.944L1.3032 211.649L13.9838 201.795L58.1189 257.257L51.7496 256.664L143.783 183.191L155.162 197.49Z" fill="#FF00BF"/>
<path d="M8.59815e-06 211.494L14.1383 200.506L55.5025 252.486L143.93 181.893L156.459 197.637L53.9111 279.241L8.59815e-06 211.494ZM155.162 197.49L143.783 183.191L55.3561 253.784L13.984 201.794L1.30358 211.65L54.0586 277.944L155.162 197.49Z" fill="#FF00BF"/>
<path d="M258.354 327.899L154.064 190.156L167.162 180.239L271.452 317.982L258.354 327.899Z" fill="#FF00BF"/>
<path d="M167.161 180.239L154.064 190.156L258.354 327.899L271.451 317.982L167.161 180.239ZM272.744 318.161L258.175 329.192L152.771 189.977L167.34 178.946L272.744 318.161Z" fill="#FF00BF"/>
<path d="M138.599 165.382L67.0596 8.1189L82.013 1.31653L153.552 158.579L138.599 165.382Z" fill="#FF00BF"/>
<path d="M82.0126 1.31603L67.0594 8.11832L138.599 165.381L153.552 158.579L82.0126 1.31603ZM154.774 159.037L138.141 166.603L65.8372 7.6604L82.4706 0.093797L154.774 159.037Z" fill="#FF00BF"/>
<path d="M126.85 156.809L201.986 1.23267L216.779 8.37701L141.643 163.954L126.85 156.809Z" fill="#FF00BF"/>
<path d="M216.779 8.3767L201.986 1.23244L126.85 156.809L141.643 163.953L216.779 8.3767ZM142.073 165.186L125.618 157.239L201.556 0L218.011 7.947L142.073 165.186Z" fill="#FF00BF"/>
<path d="M134.861 96.1639C144.362 94.4222 152.089 95.0525 158.798 96.9364C165.241 98.7457 170.546 101.702 174.488 103.738C177.374 105.229 179.343 107.567 180.604 109.383C181.951 111.321 183.057 113.499 183.964 115.599C184.209 116.167 184.446 116.747 184.676 117.335C185.234 117.497 185.796 117.668 186.357 117.853C189.207 118.791 192.515 120.174 195.497 122.237C198.458 124.287 201.713 127.444 203.296 132.093C204.111 134.485 204.694 137.542 204.628 141.593C205.612 142.325 206.587 143.154 207.466 144.121L207.776 144.471L208.1 144.858C211.41 148.892 213.465 154.093 212.365 160.116C211.984 162.205 211.241 167.274 209.768 171.59C209.019 173.785 207.855 176.522 205.938 178.905C203.917 181.419 200.623 184.022 195.943 184.385C194.875 184.468 193.868 184.399 192.925 184.213C192.702 184.673 192.466 185.128 192.211 185.574C189.513 190.299 184.418 196.433 175.756 197.134C176.281 197.84 176.727 198.465 177.1 199.029C178.252 200.766 179.03 202.36 179.481 204.301L179.568 204.694L179.663 205.202C180.107 207.762 180.019 210.651 179.322 213.182C178.997 214.362 178.394 216.048 177.269 217.635C176.716 218.414 172.72 223.719 166.051 221.588C165.703 221.477 165.353 221.347 165 221.199C163.294 221.851 161.601 221.913 160.343 221.735C159.809 221.66 159.322 221.541 158.889 221.407C160.115 226.069 160.816 228.967 161.191 230.785C161.395 231.776 161.649 233.1 161.672 234.36C161.678 234.676 161.775 236.853 160.568 239.147C159.798 240.612 158.417 242.271 156.216 243.287C154.144 244.243 152.273 244.194 151.279 244.082C148.407 243.758 146.415 242.231 145.275 240.941C144.453 240.01 143.968 239.085 143.803 238.772C143.39 237.985 142.952 236.959 142.478 235.807C141.498 233.425 139.793 229.068 136.722 221.118C134.661 221.63 132.848 221.31 131.784 220.987C129.411 220.267 127.959 218.753 127.808 218.606C127.316 218.125 126.929 217.657 126.682 217.344C125.752 216.163 124.71 214.489 123.686 212.724C123.482 212.373 123.273 212.002 123.054 211.614C122.845 211.763 122.625 211.907 122.393 212.045C118.138 214.571 114.194 212.827 112.93 212.11C111.555 211.329 110.662 210.372 110.303 209.972C108.925 208.438 107.744 206.249 107.004 204.827C105.193 201.347 102.969 196.318 101.066 191.548C93.8607 173.489 91.4739 160.77 91.1507 155.036C91.0731 153.66 91.1183 152.33 91.2363 151.094C90.5862 150.729 89.8365 150.254 89.0863 149.647C88.0362 148.799 86.4494 147.269 85.4551 144.902C84.7338 143.185 83.5237 140.179 82.6741 136.691C81.8543 133.326 81.1619 128.704 82.1503 123.987L82.2215 123.668C82.9967 120.401 84.991 117.901 86.856 116.229C88.9219 114.377 91.4941 112.922 94.3806 111.947C97.4806 110.9 103.926 109.849 112.02 109.53C113.211 108.164 114.705 106.455 116.25 104.843C121.413 99.4574 128.58 97.3154 134.861 96.1639ZM158.701 137.295C158.74 137.34 158.781 137.385 158.82 137.43C159.2 137.383 159.585 137.343 159.974 137.31C159.487 137.07 159.019 136.845 158.569 136.636C158.612 136.853 158.657 137.073 158.701 137.295Z" fill="#FF00BF"/>
<path d="M183.105 187.929C176.21 187.929 170.328 185.531 165.461 180.734C160.594 175.729 158.16 169.472 158.16 161.965C158.16 154.04 160.594 147.783 165.461 143.195C170.328 138.398 176.21 136 183.105 136C190.001 136 195.882 138.398 200.75 143.195C205.617 147.783 208.051 154.04 208.051 161.965C208.051 169.472 205.617 175.729 200.75 180.734C195.882 185.531 190.001 187.929 183.105 187.929Z" fill="#030404"/>
<path d="M103.779 187.929C96.7454 187.929 90.7464 185.531 85.7816 180.734C80.8168 175.729 78.3345 169.472 78.3345 161.965C78.3345 154.04 80.8168 147.783 85.7816 143.195C90.7464 138.398 96.7454 136 103.779 136C110.812 136 116.811 138.398 121.776 143.195C126.741 147.783 129.223 154.04 129.223 161.965C129.223 169.472 126.741 175.729 121.776 180.734C116.811 185.531 110.812 187.929 103.779 187.929Z" fill="#030404"/>
</svg>
