<svg width="1379" height="72" viewBox="0 0 1379 72" fill="none" xmlns="http://www.w3.org/2000/svg">
<path d="M-0.0999756 71L13.9 1.00005H27.3L57.4 51.7L52.1 51.4001L62.1 1.00005H78.1L64.1 71H50.8L20.6 20.3L26 20.6L15.9 71H-0.0999756ZM103.962 29.2001H137.662L135.162 41.8001H101.462L103.962 29.2001ZM99.362 58H137.562L134.862 71H80.6617L94.6617 1.00005H147.562L144.862 14H108.162L99.362 58ZM162.775 71L153.775 1.00005H169.875L177.575 62.9001H169.275L202.375 1.00005H217.375L224.875 62.9001H216.875L249.775 1.00005H265.875L228.875 71H211.475L204.475 16.6H209.375L180.175 71H162.775ZM284.456 72.2C280.656 72.2 276.956 71.8334 273.356 71.1001C269.823 70.4334 266.59 69.5 263.656 68.3C260.79 67.1 258.356 65.8001 256.356 64.4001L262.956 51.9001C265.156 53.4334 267.49 54.7668 269.956 55.9001C272.49 56.9668 275.123 57.8001 277.856 58.4001C280.59 58.9334 283.323 59.2 286.056 59.2C289.056 59.2 291.623 58.8667 293.756 58.2C295.956 57.5333 297.623 56.6001 298.756 55.4001C299.956 54.2001 300.556 52.7333 300.556 51C300.556 49.4 299.923 48.1 298.656 47.1C297.39 46.1 295.723 45.2667 293.656 44.6C291.656 43.8667 289.423 43.1667 286.956 42.5C284.49 41.8333 281.99 41.0667 279.456 40.2C276.99 39.2667 274.723 38.1333 272.656 36.8C270.656 35.4 269.023 33.6333 267.756 31.5C266.49 29.3667 265.856 26.7 265.856 23.5C265.856 18.7 267.156 14.5333 269.756 11C272.423 7.46675 276.156 4.73335 280.956 2.80005C285.756 0.800049 291.39 -0.199951 297.856 -0.199951C302.59 -0.199951 307.056 0.333349 311.256 1.40005C315.456 2.40005 319.056 3.86675 322.056 5.80005L315.956 18.2001C313.29 16.4001 310.323 15.0668 307.056 14.2001C303.79 13.2668 300.423 12.8 296.956 12.8C293.823 12.8 291.123 13.1668 288.856 13.9001C286.656 14.6334 284.956 15.6667 283.756 17C282.623 18.2667 282.056 19.7334 282.056 21.4001C282.056 23.0668 282.656 24.4333 283.856 25.5C285.123 26.5 286.79 27.3667 288.856 28.1C290.923 28.7667 293.19 29.4333 295.656 30.1C298.123 30.7667 300.59 31.5334 303.056 32.4001C305.523 33.2668 307.79 34.3668 309.856 35.7001C311.923 37.0334 313.59 38.7334 314.856 40.8001C316.123 42.8001 316.756 45.3334 316.756 48.4001C316.756 53.2001 315.423 57.4 312.756 61C310.09 64.5333 306.323 67.3 301.456 69.3C296.656 71.2333 290.99 72.2 284.456 72.2ZM352.146 71L366.146 1.00005H379.546L409.646 51.7L404.346 51.4001L414.346 1.00005H430.346L416.346 71H403.046L372.846 20.3L378.246 20.6L368.146 71H352.146ZM456.208 29.2001H489.908L487.408 41.8001H453.708L456.208 29.2001ZM451.608 58H489.808L487.108 71H432.908L446.908 1.00005H499.808L497.108 14H460.408L451.608 58ZM515.021 71L506.021 1.00005H522.121L529.821 62.9001H521.521L554.621 1.00005H569.621L577.121 62.9001H569.121L602.021 1.00005H618.121L581.121 71H563.721L556.721 16.6H561.621L532.421 71H515.021ZM636.702 72.2C632.902 72.2 629.202 71.8334 625.602 71.1001C622.069 70.4334 618.836 69.5 615.902 68.3C613.036 67.1 610.602 65.8001 608.602 64.4001L615.202 51.9001C617.402 53.4334 619.736 54.7668 622.202 55.9001C624.736 56.9668 627.369 57.8001 630.102 58.4001C632.836 58.9334 635.569 59.2 638.302 59.2C641.302 59.2 643.869 58.8667 646.002 58.2C648.202 57.5333 649.869 56.6001 651.002 55.4001C652.202 54.2001 652.802 52.7333 652.802 51C652.802 49.4 652.169 48.1 650.902 47.1C649.636 46.1 647.969 45.2667 645.902 44.6C643.902 43.8667 641.669 43.1667 639.202 42.5C636.736 41.8333 634.236 41.0667 631.702 40.2C629.236 39.2667 626.969 38.1333 624.902 36.8C622.902 35.4 621.269 33.6333 620.002 31.5C618.736 29.3667 618.102 26.7 618.102 23.5C618.102 18.7 619.402 14.5333 622.002 11C624.669 7.46675 628.402 4.73335 633.202 2.80005C638.002 0.800049 643.636 -0.199951 650.102 -0.199951C654.836 -0.199951 659.302 0.333349 663.502 1.40005C667.702 2.40005 671.302 3.86675 674.302 5.80005L668.202 18.2001C665.536 16.4001 662.569 15.0668 659.302 14.2001C656.036 13.2668 652.669 12.8 649.202 12.8C646.069 12.8 643.369 13.1668 641.102 13.9001C638.902 14.6334 637.202 15.6667 636.002 17C634.869 18.2667 634.302 19.7334 634.302 21.4001C634.302 23.0668 634.902 24.4333 636.102 25.5C637.369 26.5 639.036 27.3667 641.102 28.1C643.169 28.7667 645.436 29.4333 647.902 30.1C650.369 30.7667 652.836 31.5334 655.302 32.4001C657.769 33.2668 660.036 34.3668 662.102 35.7001C664.169 37.0334 665.836 38.7334 667.102 40.8001C668.369 42.8001 669.002 45.3334 669.002 48.4001C669.002 53.2001 667.669 57.4 665.002 61C662.336 64.5333 658.569 67.3 653.702 69.3C648.902 71.2333 643.236 72.2 636.702 72.2ZM704.392 71L718.392 1.00005H731.792L761.892 51.7L756.592 51.4001L766.592 1.00005H782.592L768.592 71H755.292L725.092 20.3L730.492 20.6L720.392 71H704.392ZM808.454 29.2001H842.154L839.654 41.8001H805.954L808.454 29.2001ZM803.854 58H842.054L839.354 71H785.154L799.154 1.00005H852.054L849.354 14H812.654L803.854 58ZM867.267 71L858.267 1.00005H874.367L882.067 62.9001H873.767L906.867 1.00005H921.867L929.367 62.9001H921.367L954.267 1.00005H970.367L933.367 71H915.967L908.967 16.6H913.867L884.667 71H867.267ZM988.948 72.2C985.148 72.2 981.448 71.8334 977.848 71.1001C974.315 70.4334 971.082 69.5 968.148 68.3C965.282 67.1 962.848 65.8001 960.848 64.4001L967.448 51.9001C969.648 53.4334 971.982 54.7668 974.448 55.9001C976.982 56.9668 979.615 57.8001 982.348 58.4001C985.082 58.9334 987.815 59.2 990.548 59.2C993.548 59.2 996.115 58.8667 998.25 58.2C1000.45 57.5333 1002.12 56.6001 1003.25 55.4001C1004.45 54.2001 1005.05 52.7333 1005.05 51C1005.05 49.4 1004.42 48.1 1003.15 47.1C1001.88 46.1 1000.22 45.2667 998.15 44.6C996.148 43.8667 993.915 43.1667 991.448 42.5C988.982 41.8333 986.482 41.0667 983.948 40.2C981.482 39.2667 979.215 38.1333 977.148 36.8C975.148 35.4 973.515 33.6333 972.248 31.5C970.982 29.3667 970.348 26.7 970.348 23.5C970.348 18.7 971.648 14.5333 974.248 11C976.915 7.46675 980.648 4.73335 985.448 2.80005C990.248 0.800049 995.882 -0.199951 1002.35 -0.199951C1007.08 -0.199951 1011.55 0.333349 1015.75 1.40005C1019.95 2.40005 1023.55 3.86675 1026.55 5.80005L1020.45 18.2001C1017.78 16.4001 1014.82 15.0668 1011.55 14.2001C1008.28 13.2668 1004.92 12.8 1001.45 12.8C998.32 12.8 995.615 13.1668 993.348 13.9001C991.148 14.6334 989.448 15.6667 988.248 17C987.115 18.2667 986.548 19.7334 986.548 21.4001C986.548 23.0668 987.148 24.4333 988.348 25.5C989.615 26.5 991.282 27.3667 993.348 28.1C995.415 28.7667 997.68 29.4333 1000.15 30.1C1002.62 30.7667 1005.08 31.5334 1007.55 32.4001C1010.02 33.2668 1012.28 34.3668 1014.35 35.7001C1016.42 37.0334 1018.08 38.7334 1019.35 40.8001C1020.62 42.8001 1021.25 45.3334 1021.25 48.4001C1021.25 53.2001 1019.92 57.4 1017.25 61C1014.58 64.5333 1010.82 67.3 1005.95 69.3C1001.15 71.2333 995.482 72.2 988.948 72.2ZM1056.64 71L1070.64 1.00005H1084.04L1114.14 51.7L1108.84 51.4001L1118.84 1.00005H1134.84L1120.84 71H1107.54L1077.34 20.3L1082.74 20.6L1072.64 71H1056.64ZM1160.7 29.2001H1194.4L1191.9 41.8001H1158.2L1160.7 29.2001ZM1156.1 58H1194.3L1191.6 71H1137.4L1151.4 1.00005H1204.3L1201.6 14H1164.9L1156.1 58ZM1219.51 71L1210.51 1.00005H1226.61L1234.31 62.9001H1226.01L1259.11 1.00005H1274.11L1281.61 62.9001H1273.61L1306.51 1.00005H1322.61L1285.61 71H1268.21L1261.21 16.6H1266.11L1236.91 71H1219.51ZM1341.19 72.2C1337.39 72.2 1333.69 71.8334 1330.09 71.1001C1326.56 70.4334 1323.33 69.5 1320.39 68.3C1317.53 67.1 1315.09 65.8001 1313.09 64.4001L1319.69 51.9001C1321.89 53.4334 1324.23 54.7668 1326.69 55.9001C1329.23 56.9668 1331.86 57.8001 1334.59 58.4001C1337.33 58.9334 1340.06 59.2 1342.79 59.2C1345.79 59.2 1348.36 58.8667 1350.49 58.2C1352.69 57.5333 1354.36 56.6001 1355.49 55.4001C1356.69 54.2001 1357.29 52.7333 1357.29 51C1357.29 49.4 1356.66 48.1 1355.39 47.1C1354.13 46.1 1352.46 45.2667 1350.39 44.6C1348.39 43.8667 1346.16 43.1667 1343.69 42.5C1341.23 41.8333 1338.73 41.0667 1336.19 40.2C1333.73 39.2667 1331.46 38.1333 1329.39 36.8C1327.39 35.4 1325.76 33.6333 1324.49 31.5C1323.23 29.3667 1322.59 26.7 1322.59 23.5C1322.59 18.7 1323.89 14.5333 1326.49 11C1329.16 7.46675 1332.89 4.73335 1337.69 2.80005C1342.49 0.800049 1348.13 -0.199951 1354.59 -0.199951C1359.33 -0.199951 1363.79 0.333349 1367.99 1.40005C1372.19 2.40005 1375.79 3.86675 1378.79 5.80005L1372.69 18.2001C1370.03 16.4001 1367.06 15.0668 1363.79 14.2001C1360.53 13.2668 1357.16 12.8 1353.69 12.8C1350.56 12.8 1347.86 13.1668 1345.59 13.9001C1343.39 14.6334 1341.69 15.6667 1340.49 17C1339.36 18.2667 1338.79 19.7334 1338.79 21.4001C1338.79 23.0668 1339.39 24.4333 1340.59 25.5C1341.86 26.5 1343.53 27.3667 1345.59 28.1C1347.66 28.7667 1349.93 29.4333 1352.39 30.1C1354.86 30.7667 1357.33 31.5334 1359.79 32.4001C1362.26 33.2668 1364.53 34.3668 1366.59 35.7001C1368.66 37.0334 1370.33 38.7334 1371.59 40.8001C1372.86 42.8001 1373.49 45.3334 1373.49 48.4001C1373.49 53.2001 1372.16 57.4 1369.49 61C1366.83 64.5333 1363.06 67.3 1358.19 69.3C1353.39 71.2333 1347.73 72.2 1341.19 72.2Z" fill="#DDFF00"/>
</svg>
